<?xml version="1.0" encoding="UTF-8"?>
<svg width="494.37" height="252.55" enable-background="new 0 0 494.367 252.55" viewBox="0 0 494.367 252.55" xmlns="http://www.w3.org/2000/svg">
 <g fill-rule="evenodd">
  <path d="m355.4,9.471c3.025.753-1.733,4.699.833,4.994-1.521,2.524-2.55-2.366-2.497-4.162 .97.136 1.49-.183 1.67-.832z"/>
  <path d="m440.3,16.131h-4.992c.37-2.643 4.47-3.149 4.99,0z"/>
  <path d="m222.23,15.297c-.958,3.758-5.695,3.738-9.988,4.162 2.08-2.644 5.51-3.922 9.99-4.162z"/>
  <path d="m357.9 22.789c2.021 7.579-4.456 13.849-9.156 17.479 3.61-5.274 6.88-10.884 9.16-17.479z" fill="#fff"/>
  <path d="m205.58,23.621c.418,4.025-4.048,3.167-5.826,4.994-16.224,12.075-27.575,29.023-39.951,44.945 10.91-20.998 23.52-40.292 45.78-49.939z"/>
  <path d="m330.43,31.112h1.664c-.15.707.326.785.833.832-1.54,1.233-1.247,4.302-4.161,4.162 .49-1.741 2.07-2.376 1.67-4.994z" fill="#fff"/>
  <path d="m161.47,31.944c.976.134.702,1.518.833,2.497-22.091,19.248-31.31,51.367-42.448,81.568-7.724,9.201-10.381,23.467-20.809,29.963 15.441-20.348 21.179-50.4 35.791-71.58 4.49-18.545 14.53-31.534 26.64-42.446z" fill="#fff"/>
  <path d="m213.08,33.609c-.758,2.016-3.345,2.204-5.826,2.498 1.42-1.352 3.03-2.521 5.83-2.498z" fill="#fff"/>
  <path d="m151.48,35.273c.925,3.874-4.897,9.097-8.323,14.149-3.287,4.848-5.726,12.174-10.82,14.15 2.91-12.904 12.45-19.173 19.14-28.299z" fill="#fff"/>
  <path d="m242.21 36.938c-6.357 6.683-12.334 13.746-19.976 19.144 4.72-8.317 10.56-15.516 19.98-19.144z"/>
  <path d="m39.952,51.088c-.61.777-1.514,1.26-2.497,1.665-6.523-7.54-21.055-10.937-29.132-9.988v-3.33c12.687-1.541 26.162,3.213 31.629,11.653z"/>
  <path d="m239.71,53.584c-.896-3.139 3.341-8.295 6.659-9.988-4.059-3.1-8.976,6.268-12.485,9.156-1.132-5.86 8.162-8.478 9.988-14.15 3.875-1.704 8.462,4.613 3.33,4.162 .362,1.024 1.064,1.709 2.498,1.665-.684,2.369-1.88,4.225-4.162,4.993 1.85-3.411-5.13,2.207-5.83,4.162z"/>
  <path d="m108.2 116.01c10.401-14.57 13.302-36.637 24.137-50.771 1.002 1.751-1.357 9.063-2.497 11.652-10.078 22.875-19.778 52.085-35.79 69.083 4.501-9.648 11.196-17.103 14.149-28.299-10.038 12.99-15.3 30.755-26.634 42.449 25.273-35.486 32.661-88.857 61.592-120.69-14.86 21.794-26.2 51.445-34.96 76.58z" fill="#fff"/>
  <path d="m134.84 41.933c-3.477 9.288-11.062 21.674-16.647 31.627-11.362 29.422-22.25 63.757-39.951 84.065-2.272-5.028 1.311-2.722 3.329-5.827 20.632-33.73 28.532-80.22 53.272-109.86z" fill="#fff"/>
  <path d="m2.498,46.094c3.63,9.385-.015,26.214.833,36.622-5.678-7.245-1.313-24.044-.833-34.125 .025-.539-1.262-1.569 0-2.497z"/>
  <path d="m126.51,46.094c.655,4.512-10.224,16.719-10.82,23.305-14.594,24.249-18.458,59.227-37.455,79.07 18.239-29.01 25.285-75.447 48.275-102.38z" fill="#fff"/>
  <path d="m19.976,51.088c5.463,2.861 14.594,2.053 18.312,6.658-2.702.482-3.872-.567-5.826-.832 2.595,6.562 11.015,7.295 12.484,14.981-3.5,1.271-9.672-1.214-13.317-2.497 .564,3.611 9.363,6.166 11.653,10.82-.511,3.458-6.475,2.745-9.156,1.665-.144,5.138 5.322,4.667 5.827,9.155-4.034-2.348-9.249-3.513-9.156-9.987 3.091-.393 3.808-.622 8.323-.833-2.81-6.693-15.114-8.098-14.981-14.981 4.772,2.163 10.924,2.948 15.814,4.994-1.806-7.079-11.52-13.446-20.809-15.815-.105-1.493 1.018-1.754.832-3.328z"/>
  <path d="m117.36,51.088c1.416-.306 1.571.649 1.664,1.665-14.382,23.073-24.543,50.365-33.292,79.071-3.941,1.608-2.513,8.585-7.491,9.155 9.839-27.706 19.121-52.313 30.795-79.07-5.376,4.158-7.831,12.601-10.82,19.976-2.947,7.269-7.593,14.435-9.988,21.641-1.017,3.059-.536,7.408-1.664,10.819-2.332,7.045-4.617,13.303-9.155,18.311 6.651-27.204 17.58-57.323 33.292-78.239 2.09,1.346-1.478,4.006-1.665,5.826 4.46-1.363 5.05-6.603 8.32-9.159z" fill="#fff"/>
  <path d="m70.747 53.584c1.458 1.873 4.742 1.917 4.994 4.994-2.144-1.184-4.708-1.949-4.994-4.994z" fill="#fff"/>
  <path d="m75.741,60.243c2.965,1.474 4.497,4.382 4.162,9.156-3.877-.562-1.779-7.098-4.162-9.156z" fill="#fff"/>
  <path d="m331.26 62.74c4.807 1.997-1.858 5.535-2.497 7.491-2.63-2.693 2.76-4.424 2.5-7.491z"/>
  <path d="m253.86,79.386c1.313,2.334 2.977-4.49 4.993-1.665 .227,3.555-3.038,3.621-4.162,5.826 5.147,3.179 4.791-6.289 9.157-6.658-.217,4.223-3.092,5.786-4.162,9.155 4.992,1.732 3.86-9.306 9.156-9.987-1.905,4.754-3.56,9.757-6.659,13.316-13.609-.541-21.874-6.424-27.467-14.982 5.972,4.16 11.913,7.983 17.479,8.324 .622-3.691-4.706-8.596-7.49-11.652 2.85-3.625 11.43,4.124 9.15,8.323z"/>
  <path d="m13.317,70.231c5.647,7.119 8.819,21.139 11.652,28.298-4.162-1.664-4.056-7.596-6.658-10.82-1.658,1.369-2.915,2.331-4.162,0-.838-2.504 1.855-1.475 3.33-1.665-1.932-4.724-5.295-8.021-4.162-15.813z"/>
  <path d="m7.491 71.896c5.811 15.275 12.49 29.682 19.976 43.281-8.267-12.82-18.709-23.466-19.976-43.284z"/>
  <path d="m227.22,81.052c3.405-1.715 6.508,4.013 9.987,4.993-.992-2.629-7.012-7.402-9.987-10.819 4.579-2.597 10.311,7.211 13.316,11.652 4.516.756 6.888,3.655 10.821,4.993-8.14,2.963-19.55-4.728-24.14-10.819z"/>
  <path d="m303.8 73.56c-1.624 5.31-3.667 10.205-8.321 12.485 2.17-4.764 3.43-10.434 8.32-12.485z"/>
  <path d="m273.83 74.392c1.831 3.564-4.708 16.636-9.987 15.815 3.74-4.866 6.88-10.33 9.99-15.815z"/>
  <path d="m278 74.392h3.33c-2.755 6.957-4.154 15.266-12.485 16.647 2.77-5.829 8.21-8.989 9.16-16.647z"/>
  <path d="m297.97,74.392c-.107,3.944-3.038,11.82-9.154,12.486 2.2-5.009 5.14-9.281 9.15-12.486z"/>
  <path d="m378.71,75.226c2.054.72 5.762-.213 5.826,2.496-2.06-.721-5.77.213-5.83-2.496z"/>
  <path d="m291.31 76.058c-1.867 4.792-2.757 10.561-8.323 11.652 1.44-5.223 3.77-9.55 8.32-11.652z"/>
  <path d="m282.99,76.89c1.344-.234 1.431.786 2.497.832-3.041,2.785-2.249,9.403-7.492,9.988 .41-4.855 3.8-6.738 4.99-10.82z"/>
  <path d="m313.78,76.89c3.598-.194 1.106,4.697-.831,4.162 .619,1.876 4.669.325 6.658.832-1.27,2.615-6.382,1.385-9.989,1.664 1.33-2.279 3.11-4.107 4.16-6.658z" fill="#fff"/>
  <path d="m363.73,77.722c9.021-1.247 17.919,4.826 27.467,5.826-8.59.812-18.32-4.429-27.47-5.826z" fill="#fff"/>
  <path d="m342.92 79.386c-3.06 3.877-7.159 6.713-12.485 8.324 2.79-4.144 7.38-6.485 12.48-8.324z"/>
  <path d="m347.91 81.884c-3.409 2.569-7.633 8.25-12.483 6.658 3.34-2.635 8.2-7.678 12.48-6.658z"/>
  <path d="m373.71,83.548c2.61-2.013 7.314.976 9.985,1.665-1.95,1.356-6.68-1.61-9.99-1.665z" fill="#fff"/>
  <path d="m340.42 91.039c1.216-4.057 5.335-5.208 9.155-6.658-2.15 3.125-4.14 6.401-9.16 6.658z"/>
  <path d="m.833,86.045c4.845.981.005,11.648 4.994,12.485-1.975,1.47-3.38-2.153-5.827.833 .083-5.593-.229-10.696.833-13.318z"/>
  <path d="m359.56,93.536c1.236.91 6.417-1.315 8.324-2.497 3.245.753-2.76,3.064 0,3.329-8.949,2.685-15.638-.36-24.14-1.664 2.657-3.17 6.452-5.202 11.653-5.826-1.839,2.601-6.165,2.712-7.491,5.826 5.145-.961 7.438-4.772 12.485-5.826-.158,3.448-4.395,2.817-4.994,5.826 3.405-.201 4.875-2.341 7.492-3.33 2.25,1.49-2.5,2.973-3.32,4.162z"/>
  <path d="m375.38,92.704c.046,3.098-3.704,2.4-6.659,2.497 .46-2.597 4.83-1.277 6.66-2.497z"/>
  <path d="m328.77 102.69c-5.659 2.314-9.339-4.521-16.646-3.329 3.06-4.873 12.89 1.019 16.65 3.329z"/>
  <path d="m214.74 98.53h2.498c-2.363 10.955-4.838 21.796-11.653 28.299 2.73-9.75 8.59-16.37 9.15-28.3z"/>
  <path d="m220.56,99.363c.974,4.93-2.967,21.693-9.987,25.802 3.85-8.08 6.28-17.58 9.99-25.797z"/>
  <path d="m323.77 104.36c-3.876 4.379-8.586-3.187-14.982-1.666 4.04-4.9 10.01 2.02 14.98 1.67z"/>
  <path d="m0,103.52c2.006-.342 1.81,1.519 4.162.832 .973,7.24 2.122,17.774 2.498,24.97-5.271-4.78-3.615-16.91-6.66-25.8z"/>
  <path d="m27.467,105.19c2.341.155 3.546,1.447 3.329,4.162-2.617.12-2.859-2.13-3.329-4.16z"/>
  <path d="m203.09 106.02c1.121 5.088-2.355 19.778-9.155 22.473 2.58-7.95 7.14-13.93 9.15-22.47z"/>
  <path d="m235.55,111.02c-1.677,2.762-1.778,7.101-4.162,9.156-1.925-1.712 2.273-4.338.833-8.324 1.49.09 1.75-1.03 3.33-.84z" fill="#fff"/>
  <path d="m191.44 112.68c-8.169 14.857-12.032 34.023-25.802 43.281 8.464-13.731 16.872-27.518 23.305-43.281h2.5z"/>
  <path d="m226.39 114.34h2.497c-2.199 3.905-2 10.207-6.659 11.652 1.19-4.07 3.38-7.16 4.16-11.65z" fill="#fff"/>
  <path d="m273,114.34c5.286,1.649 13.361.509 14.982,5.826-5.907-.311-13.943-1.604-18.312-.832 .31-3.2 6.18-.81 3.33-5z" fill="#fff"/>
  <path d="m132.34,115.18c1.194,5.645-5.996,10.087-8.323,14.982-.53-4.98 6.16-9.92 8.32-14.98z"/>
  <path d="m181.45,116.84h2.496c-7.768,13.872-11.444,31.836-24.136,40.784-.902-2.53 7.734-11.981 10.82-16.646 2.88-8.76 8.18-15.11 10.82-24.13z"/>
  <path d="m175.62,117.67c.968-.134 1.481.185 1.665.833-4.048,7.624-6.596,17.435-10.82,24.97-3.501,6.244-8.215,14.11-15.814,15.813 10.32-12.59 16.88-25.74 24.97-41.61z"/>
  <path d="m304.63,119.34c-.912,2.972-2.854,4.914-5.827,5.826 .3-3.6 2.24-5.54 5.83-5.83z"/>
  <path d="m15.814,120.17c9.298,14.564 19.451,32.707 31.628,41.616 .551,2.265 3.874,6.059 1.665,8.323-11.735-9.072-19.304-22.312-28.299-34.125 3.879,11.998 12.646,21.75 21.64,31.628 4.473,4.912 9.818,7.75 10.82,15.815-14.413-9.171-22.106-25.06-33.293-37.456 .581-4.187-1.413-5.801-.832-9.988-.036-2.128.619-1.015 1.665-.832-1.207-5.44-4.932-8.37-4.994-14.97z" fill="#fff"/>
  <path d="m168.13,121c.964,6.14-6.522,17.76-11.652,23.305 3.16-8.49 7.86-15.44 11.65-23.3z"/>
  <path d="m163.14 122.67c-1.082 6.693-6.256 16.49-12.484 20.809 3.62-7.47 8.01-14.18 12.48-20.81z"/>
  <path d="m259.68,124.33c9.377.214 13.425,2.195 25.803,1.664-5.83,3.24-21.4,2.08-25.8-1.66z" fill="#fff"/>
  <path d="m135.67 127.66c2.257 1.253-1.324 3.591-1.665 4.994-2.25-1.25 1.33-3.59 1.67-4.99z"/>
  <path d="m288.82,130.99c-9.203,2.864-19.844-.733-29.132-.832 4.81-2.79 20.47-.22 29.13.83z" fill="#fff"/>
  <path d="m215.57 134.32c-2.331 7.103-6.08 12.787-10.821 17.479 1.97-4.14 5.15-14.26 10.82-17.48z" fill="#fff"/>
  <path d="m286.32,140.15c-5.033,2.69-17.327,2.865-24.137.833 6.52-.78 17.25-.33 24.14-.83z" fill="#fff"/>
  <path d="m240.54 143.48c-3.755 2.347-6.861 5.345-10.821 7.49 2.92-3.19 4.42-7.8 10.82-7.49z" fill="#fff"/>
  <path d="m258.85,143.48c1.949.213.479,3.656 0,4.161-5.91-1.072-10.94-1.332-14.981.832 4.067,3.267 11.554-2.051 12.485,4.162-4.077-2.026-11.913-.294-14.981-3.329-2.261.513-3.899,1.651-4.994,3.329-2.582-3.724 5.824-3.583 5.826-7.491 7.33.53 13.85,2.2 16.63-1.66z" fill="#fff"/>
  <path d="m150.65 144.31c-2.133 5.712-7.288 15.405-15.814 17.478 5.29-5.81 8.83-13.37 15.81-17.48z"/>
  <path d="m153.98 145.14h2.497c-2.657 7.608-5.994 14.538-14.982 15.814 3.75-5.68 10-8.86 12.48-15.81z"/>
  <path d="m97.382,147.64c-.261,8.069-7.988,15.869-13.318,21.641 3.367-8.29 9.432-13.88 13.318-21.64z" fill="#fff"/>
  <path d="m64.921,150.13c1.345-.234 1.434.786 2.498.832 3.334,15.808 5.998,32.289 12.485,44.945-10.101-6.88-10.256-33.27-14.983-45.77z"/>
  <path d="m100.71,150.13c-1.616,8.934-10.246,22.486-17.479,25.801-2.374-2.297.988-2.539 2.498-3.329 5.063-7.42 9.81-15.15 14.981-22.47z" fill="#fff"/>
  <path d="m20.809,152.63c11.957,11.625 20.997,26.168 34.125,36.623-1.056,4.509.213,4.895 2.497,7.489-5.062.058-7.269-9.924-14.149-10.819-6.438-12.15-18.709-18.47-22.473-33.29z" fill="#fff"/>
  <path d="m272.17,152.63c2.089,1.346-1.479,4.005-1.664,5.827-3.72-1.29.46-4.45 1.66-5.83z" fill="#fff"/>
  <path d="m287.98,154.3c-3.435,4.89-3.004,13.641-8.323,16.646 .65-4.49 2.64-14.47 8.32-16.65z"/>
  <path d="m265.51,164.28c2.575.199-1.301,6.85 2.497,5.826-3.306.854-3.275,5.048-4.994,7.492-2.074-.701-4.46-1.091-7.49-.834-1.166.294-.073,1.466.832,1.666-5.637,1.98-13.017-2.925-17.479-2.498 2.211-3.167 9.882.711 14.149.832-.328-2.722-4.079-2.024-6.659-2.496 4.93-3.08 12.007,2.736 16.647,0-6.888-3.101-17.073-2.902-24.137-5.827 6.632-2.311 14.708,3.481 24.137,3.33-7.147-4.228-17.147-5.604-27.466-6.659 5.004-4.581 14.404,3.402 20.808,0-6.373-1.673-12.956-3.135-19.975-4.162 8.26-3.59 21.56,3.78 29.13,3.33zm-5.83,3.33c.967.699 2.232,1.099 4.162.832 .01-2.89-3.34-2.72-4.16-.83z" fill="#fff"/>
  <path d="m169.79 162.62c-1.234 5.988-8.725 12.911-16.646 14.983 4.82-5.73 11.52-9.57 16.65-14.98z" fill="#fff"/>
  <path d="m59.927 209.23c-13.463-14.559-30.483-25.56-38.286-45.778 7.729 6.11 12.327 14.696 19.143 21.64 6.959 7.09 17.095 12.48 19.143 24.14z" fill="#fff"/>
  <path d="m159.81 165.95c-1.324 5.897-9.844 11.792-16.647 14.981 4.26-6.28 10.8-10.29 16.65-14.98z" fill="#fff"/>
  <path d="m263.85,168.44c-1.93.267-3.195-.133-4.162-.832 .81-1.89 4.16-2.06 4.16.83z"/>
  <path d="m144.82 167.61c-4.128 5.033-11.073 11.67-15.813 13.317 3.74-5.97 9.5-9.92 15.81-13.32z" fill="#fff"/>
  <path d="m296.31,174.27c-.119-2.617 2.134-2.859 4.162-3.33 1.153,1.398 1.922,7.458-1.665,6.66 .24-2.18-.3-3.58-2.49-3.33z"/>
  <path d="m282.16,173.44c1.345-.234 1.433.786 2.497.832-1.853,3.418-3.202,7.341-7.49,8.322 .96-3.74 3.82-5.61 4.99-9.15z"/>
  <path d="m268.01,175.1h2.498c-.368,2.922-1.756,3.529-4.162,2.498 .53-.84 1.91-.86 1.66-2.5z" fill="#fff"/>
  <path d="m209.75,177.6c.668.439 1.351.867 2.496.832-4.784,4.647-7.087,11.778-14.149,14.149 2.06-6.81 8.02-9.73 11.65-14.98z"/>
  <path d="m214.74 178.43c3.078 2.12-2.849 7.741-6.658 8.322 1.16-3.83 4.69-5.29 6.66-8.32z"/>
  <path d="m198.09,179.27c.038,3.921-2.406,5.361-4.161,7.49-3.24-1.48.18-7.99 4.16-7.49z"/>
  <path d="m205.58,179.27c-2.632,3.194-4.401,7.251-8.323,9.156 .86-4.97 2.78-8.88 8.32-9.16z"/>
  <path d="m13.317,180.1h2.497c-.426,5.698 1.477,9.065.832,14.981-2.27-3.83-2.348-9.86-3.329-14.98z"/>
  <path d="m244.7,184.26c-2.467,4.118-8.275,2.871-9.988,9.155-.994,3.646 1.131,7.349 2.497,11.652-8.21-6.22-4.59-21.57 7.49-20.81z" fill="#fff"/>
  <path d="m195.6,194.25c-.439,5.396-2.698,16.161-10.819,16.646 3.94-5.22 7.21-11.1 10.82-16.65z"/>
  <path d="m282.99,194.25c-.915,2.693-2.416,4.799-3.329,7.49-3.16-1.22.33-7.21 3.33-7.49z"/>
  <path d="m130.68,195.08c-.058,4.395-7.156,8.927-10.82,12.485 .73-3.71 7.13-8.94 10.82-12.48z"/>
  <path d="m285.49,195.08c1.028,4.375-3.945,9.914-5.826,14.15 6.167-2.434 4.983-12.218 11.652-14.15-4.14,7.515-6.659,16.646-13.318,21.642 .376-2.399 2.947-2.604 2.497-5.827-3.685.478-2.489,5.833-6.659,5.827 1.5-3.772 4.489-6.054 4.995-10.821-4.602,2.056-3.594,9.724-9.156,10.821 2.219-4.994 4.882-9.546 7.492-14.151 4.45,4.05 5.37-5.05 8.34-7.49z"/>
  <path d="m335.43 195.91c1.265 7.252-7.907 18.056-14.15 23.306 4.94-7.55 11.4-13.57 14.15-23.31z" fill="#fff"/>
  <path d="m188.1 196.74h3.33c-3.052 5.086-5.438 14.972-11.652 14.15 1.79-5.7 8.26-6.72 8.32-14.15z"/>
  <path d="m222.23,197.58c-.5,5.881-.661,12.101-5.826,13.316 1.59-4.8 1.32-11.45 5.83-13.32z"/>
  <path d="m294.64 197.58c-1.392 3.324-3.365 6.066-4.993 9.154-2.91-1.73 1.47-8.53 4.99-9.15z"/>
  <path d="m79.071,198.41c.967-.136 1.481.183 1.665.832 2.847,4.958 5.317,10.776 8.323,15.813 2.894,4.849 8.158,8.38 8.324,13.318-9.107-6.98-13.414-18.77-18.312-29.96z"/>
  <path d="m74.077,200.07c2.39-1.246 4.137,5.27 5.826,7.491-4.979.54-2.988-5.88-5.826-7.49z"/>
  <path d="m121.52 199.24c-1.395 4.154-3.649 7.449-8.324 8.323 1.84-3.7 4.61-6.48 8.32-8.32z"/>
  <path d="m214.74,199.24c3.267,2.235.614,10.496-3.329,9.155 1.4-2.76 2.05-6.28 3.33-9.16z"/>
  <path d="m238.88,200.07c8.834-1.061 19.362,3.384 26.634,6.658 .688,2.353-1.173,2.157-.831,4.162-13.86,1.66-13.66-10.75-25.8-10.82zm23.3,7.49c-3.132-.751-5.383-2.386-9.156-2.497 .43,2.95 6.7,4.37 9.16,2.5z" fill="#fff"/>
  <path d="m198.93,200.9c1.388,2.807-1.189,8.777-4.994,9.156 .73-3.98 3.28-6.14 4.99-9.16z"/>
  <path d="m209.75,200.9c1.092,1.963.065,8.916-4.162,8.324 .49-3.65 3-5.3 4.16-8.32z"/>
  <path d="m166.46 201.74c1.481 3.814-7.006 11.778-13.317 13.317 3.37-5.52 9.8-7.96 13.32-13.32z"/>
  <path d="m72.413,203.4c2.616-.12 2.859,2.134 3.329,4.161-2.617.12-2.86-2.13-3.329-4.16z"/>
  <path d="m148.15 204.24c1.112 2.804-2.744 7.779-7.491 7.491 1.79-3.21 5.19-4.81 7.49-7.49z"/>
  <path d="m253.03,205.07c3.773.111 6.023,1.746 9.156,2.497-2.47,1.86-8.74.44-9.16-2.5z"/>
  <path d="m297.14,205.9c-1.21,1.579-4.426,3.654-5.826,2.497 .44-.669.868-1.351.831-2.497 2.62.42 3.26-1.82 5,0z"/>
  <path d="m25.802 207.56c1.474 2.134 3.84 3.374 4.162 6.658-2.416-1.19-4.293-2.92-4.162-6.66z"/>
  <path d="m282.99,216.72c.473-3.967 2.976-5.902 4.161-9.156 2.799,1.805-.927,3.813 4.993,2.497-.66,4.26-4.28,9.3-9.15,6.66z"/>
  <path d="m169.79 209.23c-6.173 5.187-11.413 12.937-19.143 14.149 5.99-4.61 11.85-13.6 19.14-14.15z"/>
  <path d="m204.75,210.06c1.344-.234 1.433.786 2.497.832 .729,2.672-2.158,1.726-2.497,3.329-1.95-.21-.48-3.65 0-4.16z"/>
  <path d="m194.76,210.89c-2.38,2.059-.929,7.949-6.659,6.659 .95-3.49 3.4-5.49 6.66-6.66z"/>
  <path d="m199.76,210.89c-.521,1.978-1.119,3.874-3.329,4.161 .52-1.97 1.12-3.87 3.33-4.16z"/>
  <path d="m295.48,211.73c-.924,2.128-1.556,4.549-3.331,5.826h-2.495c1.2-2.68 2.34-5.42 5.82-5.83z"/>
  <path d="m186.44 212.56c-1.85 4.253-3.705 8.501-9.988 8.322 3.57-2.54 3.75-8.46 9.99-8.32z"/>
  <path d="m215.57,212.56c3.819.416.758,6.319-2.498,4.994 .02-2.48 2.17-2.83 2.5-4.99z"/>
  <path d="m30.796 215.06c4.393 4.487 10.144 7.613 12.485 14.15-5.792-3.09-9.153-8.61-12.485-14.15z"/>
  <path d="m298.8,215.06c-1.204,1.294-1.75,3.244-2.497,4.994-1.492.105-1.755-1.019-3.329-.832 1.27-2.07 2.86-3.81 5.83-4.16z"/>
  <path d="m301.3,217.55v2.496c-1.477-.189-4.169.839-3.331-1.664 1.49.1 1.76-1.03 3.33-.84z"/>
  <path d="m254.69 224.21c1.47 7.58-3.796 15.617-9.987 18.31 3.8-5.63 7.81-11.06 9.99-18.31z" fill="#fff"/>
  <path d="m31.628 228.37c3.71-2.019 5.302 5.219 9.156 5.826-4.119 2.43-5.921-4.6-9.156-5.83z" fill="#fff"/>
  <path d="m284.65,230.04c.787,3.034-4.859,11.204-7.49,10.819 2.66-3.45 4.87-7.35 7.49-10.82z" fill="#fff"/>
  <path d="m261.35,231.7c4.154,3.54 5.058,12.762-1.666,13.317 1.045-3.396 4.203-4.675 3.33-9.987-3.76.679-2.448,6.431-6.659,6.658 1.48-3.52 4.07-5.93 5-9.99z" fill="#fff"/>
  <path d="m279.66,231.7c-1.828,1.781-.969,6.246-4.995,5.826 .33-3.28 2.9-4.32 5-5.83z" fill="#fff"/>
  <path d="m288.82 231.7c3.401 3.576-3.953 8.102-7.491 9.988 1.85-3.97 5.41-6.24 7.49-9.99z" fill="#fff"/>
  <path d="m166.46 233.37c-1.092 3.071-4.367 3.955-7.49 4.994 2.01-2.15 4.63-3.7 7.49-4.99z" fill="#fff"/>
  <path d="m45.779,236.7c6.078,3.909 11.501,8.474 16.646,13.318-6.62-.05-13.386-7.15-16.646-13.32z"/>
  <path d="m44.945,242.52c3.514-.441 8.362,4.942 10.82,8.324-3.572.521-5.362-.742-6.658-2.498-.648.728.316,3.686-3.329,3.331-2.576-3.63 2.69-5.95-.833-9.15z"/>
  <path d="m99.879 245.85c-1.813 3.182-5.102 4.887-9.989 4.993 3.04-1.95 6.209-3.78 9.989-4.99z" fill="#fff"/>
  <path d="m195.6,21.957c-18.374,8.139-38.776,34.292-47.442,53.269-1.538,3.365-.802,8.541-5.826,9.155 9.676-23.339 22.025-44.006 40.783-58.263-27.768,13.572-35.242,47.435-51.604,72.412 8.959-26.83 21.416-50.163 39.12-68.25-33.302,23.019-40.881,78.973-64.921,114.03 11.136-5.79 14.618-26.442 25.802-34.958-7.477,12.222-13.306,26.09-22.473,36.622 4.279.105 7.255-8.272 10.821-11.652-.502,5.888-6.854,13.117-9.989,19.143 11.767-9.042 16.892-24.726 27.467-34.957-6.151,15.211-16.627,26.097-24.97,39.119 6.695-6.067 12.399-13.125 17.479-20.809-.844,8.04-8.981,15.984-14.149,22.473 11.038-6.741 19.651-23.058 27.466-35.791 2.916,2.182-2.215,8.97-4.994,10.821-3.26,10.889-11.141,17.159-16.646,25.802 6.24-.974 6.698-7.73 11.652-9.988-.216-2.437 1.882-2.558 1.666-4.994 7.131-5.076 8.011-16.403 15.814-20.808-7.495,14.76-14.913,25.545-24.138,37.454h-6.658c18.931,5.114 39.492-.235 54.101-7.491-.541-.847-1.914-.861-1.666-2.497 5.295-6.274 11.791-13.213 15.814-21.64 3.329-6.971 3.11-17.117 10.821-20.808-6.329,13.646-11.247,28.705-19.976,39.952 7.749-4.181 9.807-14.053 16.646-19.144-3.014,10.58-10.469,16.72-15.813,24.97 7.354-4.58 13.87-17.202 19.976-25.802 2.462,3.373-3.56,7.912-5.826,11.652-3.02,4.982-4.566,11.114-9.155,13.317 8.63-3.58 14.198-17.427 19.976-26.634 1.262,7.52-8.516,18.005-13.317,24.97 9.505-2.706 11.913-19.713 19.976-26.634 2.352,1.872-1.368,4.681-1.664,6.659 3.44-.721 2.257-6.066 5.827-6.659 2.371,2.616-2.024,3.513-1.666,6.659 5.234-4.476 8.581-10.839 9.987-19.144-4.254,2.404-2.589,10.727-8.321,11.653 3.249-8.125 5.767-16.982 9.987-24.137 .663,4.271-1.753,5.461-1.666,9.155 3.873-1.4 1.973-8.571 6.66-9.155 2.057,2.156-1.796,3.094-1.665,5.826 1.4,1.88 3.113-2.935 3.329-4.994 4.44,1.932 2.219-1.958 6.659-1.665-.16,3.724-2.13,5.638-4.162,7.491 1.987.569 5.726-4.24 6.659-7.491-5.968-3.187-18.339.026-19.975-7.491 4.518,2.236 11.864,3.855 15.813,4.161-4.123-3.923-13.332-2.759-15.813-8.323 10.298,2.294 28.299,7.768 38.286,8.323-1.866-3.012-5.529-1.004-7.491-2.497 2.665-3.199 5.979.04 9.157,0 5.203-.064 10.134-3.434 15.814-4.161 9.558-1.225 20.936,1.322 29.963-4.994-1.919-1.553-3.625-1.393-6.659.832-.052-4.369 4.784-10.637 9.154-13.317-1.074,3.918-3.823,6.165-4.992,9.988 1.821-.42 7.575-4.06 6.659-9.988 1.739-.353 2.202.571 3.327.832 1.36-4.19-.913-12.01 3.33-13.317 .979,4.847.951,10.702 1.665,15.815 2.787-2.208 1.308-8.68 4.162-10.82 2.206-.265-.778,4.662 2.495,3.329-2.554,1.481-2.485,2.418-1.664,5.826 1.771,1.711 6.012-5.582 8.323-3.329-1.021,3.972-6.622,3.365-8.323,6.658 2.765,2.204 6.562-5.275 9.157-3.33-1.564,4.541-6.567,5.64-9.157,9.156 3.885,1.24 8.953-7.503 13.316-5.826-2.334,4.045-6.131,6.63-10.819,8.323 .745,1.476 3.378,1.061 2.498,4.162 14.137,3.01 36.623,12.391 50.771,2.497 11.631,1.896 23.429-6.847 19.976-19.976 .239,20.371-22.861,20.42-38.285,11.653-2.891-2.104-3.034-6.956-7.492-7.491-.904-8.315 3.593-14.193 9.987-17.479 7.576,2.69 18.518,2.012 26.636,4.162-4.887-5.329-17.43-5.723-24.972-5.826-4.138-4.184-10.429-6.217-15.812-9.156-32.896-7.487-80.619-6.521-114.86-14.149-2.458.724 1.931,1.247.833,3.33-9.09,4.228-13.256,13.379-20.808,19.144 5.011-8.306 10.22-16.413 19.142-20.808-1.831-3.669-5.936-.601-4.995,1.664-8.41,4.629-13.137,12.941-20.807,18.312 3.865-8.342 10.113-14.302 17.479-19.144-.766-1.454-2.603-1.837-4.993-1.666 .356,1.307 2.617.712 1.664,3.33-11.21,4.882-15.868,16.316-24.97,23.306 5.593-9.39 12.868-17.097 20.808-24.138-11.251,4.01-19.194,18.537-29.131,26.634 4.514-9.914 12.07-16.785 19.144-24.137-12.34,5.415-16.688,18.824-27.466,25.802 5.604-9.655 13.384-17.135 20.808-24.97-10.738,6.464-17.932,16.471-25.802,25.802 1.664-8.604 12.053-15.687 17.479-23.305-11.5,5.701-17.264,17.139-25.802,25.802 8.895-18.573 24.147-35.224 41.617-42.448-3.643,4.958-10.696,6.506-14.15,11.652 7.851-2.419 17.173-10.567 27.467-13.316-1.438,3.833-6.488,4.055-8.324,7.49 12.785-3.209 36.393-3.488 49.941,1.665 2.493-.547-.797-1.778 0-3.329 2.545-.604 2.448,1.436 4.993.832-.484-2.846-2.784-3.874-2.497-7.491 3.574,1.141 5.479,3.954 9.154,4.993-.064-4.652-4.096-5.335-4.161-9.987 6.663,2.493 8.16,10.151 14.148,13.317 4.252-1.934.127-4.422 1.666-7.49 3.63-.301 3.483,3.174 4.993,4.994 2.071-2.347.816-7.266 4.993-9.156 2.156,1.07 2.616,1.721 1.667,4.162 5.748.719 3.985,2.01 8.321,1.664-.208,3.399-2.15,5.063-3.328,7.491 3.63-.808 3.876-5.001 6.659-6.658 3.519,1.172.291,5.891-.833,7.49 4.234,1.719 3.534-8.656 9.155-8.323 .702,3.477-1.617,3.931-1.665,6.659 2.47-1.969 3.063-5.816 7.491-5.826 .447,3.776-1.673,4.986-2.497,7.49 3.536-1.458 4.23-5.757 6.659-8.323 3.08-.583 2.074,2.917 3.328,4.162 2.903-.981 1.823-5.946 5.827-5.826-.484,4.786-3.793,6.749-4.162,11.652 4.5-3.27 4.384-11.154 9.988-13.318 .968,3.198-3.116,7.771-4.162,11.652 7.646-2.896 5.435-15.651 14.149-17.478-3.482,7.892-6.589,16.16-12.485,21.64 9.221-4.096 11.465-15.17 16.647-23.304 4.732,3.13 2.83,13.485 1.664,18.31 4.638.754 1.896-5.872 4.994-6.658 3.064-.767 1.512,4.391.831,4.994 1.062,1.804 2.716-2.768 5.826-1.664 .073,1.181.14,2.357-.831,2.497 1.382,2.127 2.234-3.248 4.993-2.497 .11,2.051.127,4.01-.831,4.994 1.583,2.063 2.267-3.781 5.826-2.498 .603,2.546-1.437,2.448-.833,4.994 3.313-.571 1.979-5.791 5.826-5.826 .275,3.05-.924,4.625-1.664,6.659 5.762.49 2.386-8.158 9.156-6.659-.14,2.357-1.525,3.469-1.666,5.826 2.923,1.778 2.644-6.764 7.491-5.826 .669,2.888-1.24,3.2-.832,5.826 3.177,2.307 1.754-7.096 6.658-5.826 1.528,1.625-.232,4.658-.832,6.659 3.934-1.061 2.856-7.131 7.49-7.491-.126,2.647-1.887,3.662-1.664,6.658 3.087-1.351 2.495-6.383 5.825-7.49 1.528,2.134-1.54,5.236-1.664,8.323 3.283,1.591 2.626-7.898 7.49-7.491 .448,3.219-1.485,4.063-.831,7.491 6.079-5.472 2.528-12.527 5.826-19.144 4.541-.876-.237,2.816 4.162,2.497-4.832,6.522 2.875,10.173.833,15.814 1.464,1.679 3.3-3.309 4.993-4.162 3.209.781-.253,4.666-.831,6.658 3.195-.963 3.285-5.036 7.49-4.993 .701,3.476-1.618,3.93-1.664,6.658 3.775.448 2.221-4.437 5.825-4.162 1.827,1.75.173,3.701-.832,4.994 3.009-.321 3.974-2.685 5.826-4.162 2.503-.838 1.475,1.854 1.664,3.33 2.621.402 1.885-2.555 4.994-1.666 1.56,1.585.092,2.091 0,4.162 4.623-4.19 10.428.004 15.814-3.329 1.775-.39 1.585,1.189 1.664,2.497 2.456-.537 3.369-5.37 5.826-3.331-.439.67-.868,1.352-.831,2.498 3.821-2.004 3.326-8.324 9.154-8.324 .938-5.375-2.141-6.736-2.497-10.819 14.266,10.157-1.11,22.41-10.819,27.466-28.981,2.284-53.412-5.928-84.897-.832-.732-2.674 2.744-1.141 2.498-3.33-1.504-2.508-2.55,2.366-5.827.832-3.732.06 1.144-2.448.832-4.161-2.19,1.971-3.643,4.68-7.491,4.993-2.036-1.962 1.243-1.547.831-4.161-2.723,1.161-2.634,5.134-7.49,4.161-.366-3.142 1.644-3.906 2.498-5.826-3.546.892-3.456,5.421-7.491,5.826-1.562-1.586.494-1.506 0-4.161-3.25,1.932-3.184,4.995-8.322,3.329 6.646,3.269 19.369,1.312 27.466.832-3.738,4.167-7.863.999-14.981,3.33 7.953,4.728 16.794,2.643 24.137,8.323 9.593,7.42 6.372,24.379-1.664,32.461-8.255,2.843-16.657,5.539-25.804,7.491-1.465,14.348-10.935,20.692-19.142,28.299 7.31,6.187 3.732,18.581 4.162,29.131-3.465,1.53-3.971,6.018-9.157,5.826-5.609,6.068-1.716,16.976-11.652,19.144 1.206,4.897 3.139,9.067 4.995,13.315-2.203,15.277-12.174,22.785-18.312,34.126-21.378,12.146-52.388,19.268-83.233,18.311-34.998-1.084-66.107,2.245-95.717-8.323-12.46-.854-22.191-4.442-31.628-8.322-5.668,7.22-11.137,26.59-24.97,17.479-2.947-.451-2.046,2.945-4.994,2.495 2.364-6.199-5.457-8.049-8.323-11.652 1.072,3.368 3.852,5.027 5.826,7.49-2.723,1.335-9.182,2.124-13.317,2.498-6.137-7.458-15.031-12.157-20.808-19.976 9.798,4.904 15.588,13.82 25.802,18.311-7.135-10.897-21.433-14.634-25.802-28.299 6.428,5.225 11.331,11.974 17.478,17.48-.972-8.119-12.223-16.9-17.478-20.809 6.72-3.027 11.563,10.011 17.478,13.316 .491-7.839-13.301-14.7-16.646-24.138 6.764,2.669 8.751,10.114 14.981,13.317 1.376-1.162-1.041-5.57-1.666-7.49-13.98-11.543-26.111-24.938-36.621-39.952-4.835,2.633.931,8.463 3.33,11.653 5.496,7.311 14.993,15.428 18.31,22.472-9.181-6.077-13.585-16.933-23.304-22.472 3.657,10.801 16.343,19.7 23.304,29.963-8.816-2.881-14.168-16.316-22.472-22.473 1.167,8.824 11.277,15.909 15.814,24.137 3.06.909 6.275,2.944 4.994,5.826-7.833-6.871-15.417-13.99-19.976-24.136-1.102,16.652 8.831,25.997 19.976,34.124 .532,4.027-1.1,5.888 0,8.324-1.698-.245-1.632-2.253-3.329-2.498-2.395,2.329 2.958,5.432 0,8.324-2.808-1.809-2.042-2.014-4.994-3.331-3.353-12.637-21.88-27.322-18.312-44.943 4.256-6.608 1.382-15.884.833-24.971-1.257-20.767-.674-42.413-5.827-60.76 1.963,1.222 1.549,1.757 4.162.833 7.201,16.83 16.665,30.858 29.131,44.112-1.518-12.634-13.356-22.152-20.808-31.627-4.631-12.009-12.838-22.042-15.814-33.293 12.392,16.74 19.624,38.64 34.958,52.437-.847-11.084-9.508-14.353-12.485-23.305 4.544,2.115 6.072,7.245 9.988,9.987-.442-7.528-7.812-11.438-9.988-20.808 4.889,2.602 6.081,8.901 10.821,11.652-.584-12.458-13.131-20.16-16.647-32.461 6.488,1.287 7.427,15.32 14.149,19.144 1.928-.936-1.175-3.226 1.665-4.161 4.133,3.358 1.213,13.204 1.665,18.31 .115,1.301 1.413,2.134 1.665,3.33 8.166,38.708 14.592,80.528 27.467,114.86-.906-39.567-13.188-79.229-19.144-114.86 4.442,2.34 3.238,9.077 4.161,13.317 4.613,21.188 12.023,46.823 14.149,70.748 4.43,4.016 1.632,10.423 5.827,14.981-.74.949-2.324-.514-1.665,3.33 .566,2.762 5.726.931 6.659,3.328 3.147-.518-.899-3.477 3.329-3.328v3.328c2.018-.492 3.682-.495 4.994-3.328-5.747-4.801-14.395-11.124-14.149-19.144 4.13,2.806 4.508,9.363 9.155,11.651-.643-4.805-5.868-8.869-4.993-12.484 2.852,1.771 4.373,6.012 6.659,9.988 2.771,4.822 7.421,9.036 4.994,11.652 3.105.367 5.523.948 10.82.832-16.328-19.741-26.048-46.087-32.461-75.741 3.775.605 1.956,3.957 2.498,5.826 7.035,24.31 16.417,48.186 31.628,66.587-1.505-5.162-7.803-12.722-10.82-19.145 2.987-.689 4.027,1.877 5.826,0-.567-3.035-3.313.178-6.658-.832-20.912-35.871-25.267-91.628-21.641-133.17-4.633,2.343-8.51.328-13.316,2.498-7.521,22.146 6.042,46.32 8.324,69.083-3.19-3.537-4.436-9.815-5.828-15.813-2.504-10.804-5.287-21.553-5.826-35.791-3.657,6.248.307,21.199 0,29.964-3.43.22-4.153-5.227-2.496-7.492-6.852-18.337-.906-41.379 6.658-59.095-1.382-2.127-2.235,3.248-4.994,2.497 1.874-2.481-4.666-2.111-7.49-2.497 1.718-4.939 12.388-.928 14.148-5.826-4.239-3.555-12.341,3.708-14.981-3.33-.975.135-.702,1.518-.832,2.498-2.005.341-1.809-1.521-4.161-.832-.001-1.387-.001-2.775 0-4.162 17.859,1.037 42.937-2.541 45.697,20.798 30.175-22.673 69.39-35.944 110.7-49.106 15.412-4.911 29.56-12.968 47.442-14.982 23.966-2.699 48.409-1.12 72.413-1.665 14.562-.33 29.498-1.778 44.946-.832 2.348.425 3.533,2.014 5.825,2.497 35.049-1.851 67.219,7.412 99.878,9.988 4.91,5.125 16.294,1.502 19.977,9.156-20.133-7.492-44.679-10.666-65.754-7.492-17.632-7.936-40.941-6.519-60.76-9.156-.847.541-.861,1.914-2.496,1.665-11.177-5.439-32.699,1.252-48.276-4.162-11.103,4.522-22.163,2.548-33.292,1.664-43.522-3.458-80.608,14.018-102.38,40.784-6.501,10.978-14.027,20.931-21.641,30.796 8.92-23.531 25.04-39.869 43.28-54.099zm153.14,18.311c4.7-3.63 11.177-9.9 9.156-17.479-2.28,6.595-5.55,12.205-9.16,17.479zm-19.97-4.162c2.914.14 2.621-2.929 4.161-4.162-.507-.047-.983-.125-.833-.832h-1.664c.39,2.618-1.19,3.253-1.67,4.994zm-193.93,38.286c-14.612,21.18-20.349,51.232-35.791,71.58 10.428-6.497 13.085-20.763 20.809-29.963 11.138-30.201 20.356-62.32 42.448-81.568-.13-.979.144-2.362-.833-2.497-12.12,10.911-22.16,23.9-26.64,42.447zm72.41-38.286c2.481-.293 5.068-.481 5.826-2.498-2.8-.022-4.41,1.147-5.83,2.498zm146.49,6.659c.725-1.219 1.246-2.638 3.33-2.497-2.132-2.415 1.454-4.788 0-5.827-.82,2.544-4.96,6.097-3.33,8.324zm-221.4,20.807c5.094-1.976 7.533-9.302 10.82-14.15 3.426-5.052 9.248-10.275 8.323-14.149-6.69,9.126-16.23,15.395-19.14,28.299zm-52.437,101.55c2.26-.596-.596,3.925 1.665,3.329 3.112-7.435 11.779-13.738 11.652-21.64-4.44,6.1-7.699,13.38-13.317,18.31zm63.257-125.68c-28.931,31.83-36.319,85.201-61.592,120.69 11.334-11.694 16.597-29.459 26.634-42.449-2.953,11.197-9.648,18.651-14.149,28.299 16.012-16.997 25.712-46.207 35.79-69.083 1.14-2.589 3.499-9.901 2.497-11.652-10.835,14.134-13.736,36.202-24.137,50.771 8.76-25.135 20.1-54.786 34.96-76.575zm-61.592,112.36c-2.019,3.105-5.602.798-3.329,5.827 17.702-20.308 28.589-54.643 39.951-84.065 5.585-9.954 13.17-22.339 16.647-31.627-24.74,29.632-32.64,76.122-53.272,109.86zm-3.329-3.33c18.997-19.844 22.861-54.822 37.455-79.07 .596-6.586 11.475-18.792 10.82-23.305-22.99,26.928-30.036,73.365-48.271,102.38zm30.791-88.227c.188-1.82 3.755-4.48 1.665-5.826-15.713,20.916-26.641,51.035-33.292,78.239 4.539-5.008 6.823-11.266 9.155-18.311 1.128-3.412.647-7.76 1.664-10.819 2.395-7.207 7.042-14.372 9.988-21.641 2.989-7.375 5.444-15.817 10.82-19.976-11.674,26.757-20.957,51.364-30.795,79.07 4.979-.57 3.55-7.547 7.491-9.155 8.749-28.706 18.91-55.998 33.292-79.071-.093-1.015-.249-1.97-1.664-1.665-3.28,2.56-3.87,7.8-8.34,9.159zm-33.289-1.664c-.252-3.077-3.537-3.122-4.994-4.994 .286,3.044 2.85,3.809 4.994,4.994zm0,64.921c.255,1.92-2.404.925-2.497,2.498 2.077,2.196-1.744,7.206 1.665,9.156 4.492-28.089 17.254-52.546 29.131-75.742-13.627,17.162-22.62,38.965-28.299,64.082zm4.162-54.102c.335-4.773-1.197-7.682-4.162-9.156 2.383,2.059.285,8.595 4.162,9.156zm311.29-4.161c-5.332-.619-16.415-3.945-18.312-2.497 6.1.298 12.99,4.2 18.31,2.497zm-318.78,34.126c2.434,1.343-1.327,4.29.832,4.994 3.015-2.812 2.26-9.393 6.659-10.821-1.456,7.595-8.274,18.125-5.826,24.137 4.639-20.054 16.39-37.431 21.641-54.101-6.866,7.871-10.043,23.762-17.479,28.299 3.362-7.462 9.322-16.752 10.82-23.305-2.447,1.991-2.959,5.918-6.659,6.659 .434-1.232 1.232-2.098 1.665-3.33-3.628,1.936-11.052,4.465-9.155,9.156 .843-2.21 1.369-4.736 4.162-4.994-2.161,10.013-6.966,10.757-6.658,19.143 4.152-4.449 4.284-12.917 9.155-16.646-2.394,6.957-5.767,20.205-9.157,20.802zm322.94-28.3c-11.173-2.761-28.375-13.197-34.959-1.665 2.36.971 5.504,1.155 6.659,3.33-3.685.396-4.139-1.145-6.659,0-6.948.846 3.987,1.019 3.33.832 6.819,1.936 20.417,7.628 29.131,8.324 .081-3.688-6.254-.959-6.659-4.162 3.704-.651 4.996,1.109 8.323.833 .99-2.513 2.04-4.96.84-7.492zm-85.73,12.485c3.607-.279 8.72.951 9.989-1.664-1.989-.507-6.039,1.044-6.658-.832 1.938.535 4.429-4.356.831-4.162-1.05,2.551-2.83,4.379-4.16,6.658zm81.57,0c-9.548-1-18.446-7.073-27.467-5.826 9.16,1.397 18.89,6.638 27.47,5.826zm-7.49,1.665c-2.671-.689-7.375-3.678-9.985-1.665 3.3.055 8.03,3.021 9.98,1.665zm-63.26,29.967c-3.37,1.363-3.829-4.405-5.826-1.665 1.67,1.383 3.87,2.235 4.162,4.995-2.543.786-2.608,4.049-5.825,4.161 .243-.984 3.352-3.144.831-4.161-1.269,3.19-5.715,7.574-9.154,5.826 2.662-2.609 5.544-4.999 8.323-7.492-10.763-11.561-33.923-15.931-51.604-10.82-7.125,4.291-16.735,22.445-6.66,30.796-6.53-8.696.269-26.318 9.157-26.634-.932,2.904-9.565,6.212-4.995,9.156 2.175-8.779 9.856-7.593 16.647-10.821 .025,1.237-3.406,3.719 0,3.329 2.846-.483 3.875-2.783 7.491-2.496-.258,3.297-2.89-.932-2.498,2.496 2.85,1.792 7.537,2.976 12.485.833-.032,2.402-4.704,1.968-2.497,4.161 3.18.188 4.478-4.262 7.49-1.664-.44,1.566-4.381,3.853-2.495,4.994 .113-1.628 3.713-3.948 4.993-1.664-3.444.995-4.292,4.586-7.491,5.826-7.489-3.608-20.276-1.92-28.298-4.994-1.457.289-5.147,2.516-2.498,4.161 9.75-.866 26.433-1.467 32.461,4.162 .265-.963 2.576-3.92 3.328-1.665 .086,3.693-4.322,2.891-4.993,5.827 5.637.71 6.915-6.668 10.819-4.994-3.428,4.339-7.947,7.589-12.483,10.82 7.114,1.404 11.918-10.67 18.31-9.988-3.696,6.018-13.563,10.288-15.812,14.981 8.479-4.005 14.352-10.616 21.639-15.813 .06-3.027 3.547-6.948 5.826-4.994-6.862,8.396-14.065,16.453-24.137,21.641 9.641.422 14.949-10.53 22.473-14.983-2.678,7.865-10.491,10.595-15.815,15.815 7.38,1.17 10.679-8.667 17.479-10.821-1.501,4.88-6.504,6.258-8.322,10.821 6.808-.348 8.615-3.618 13.315-5.826 16.854-7.915 40.561-16.522 40.785-38.287-12.447-1.184-22.533-1.243-31.628-4.162 2.432.356 5.987,2.09 4.162,4.162-4.401-1.715-10.863-5.767-15.814-4.162 3.385,1.351 10.814,3.031 9.988,5.826-5.114-2.656-11.694-3.843-16.647-6.659 3.822-2.201 7.978-3.252 12.485-.833-7.877-9.399-20.652,1.576-24.137,9.157 5.247,2.287 14.87-.023 16.646,7.49-4.899-.926-8.494-3.16-11.652-5.826 .68,7.32 8.8,2.65 10,9.96zm-81.56-4.16c.42-3.886 1.573-1.641 2.497,0 1.38-3.436 3.677-8.822 2.497-9.155-.2,3.96-9.27,6.07-5,9.16zm4.16,9.15c2.845-3.537 4.12-8.643 4.995-14.15-4.103,1.462-7.144,8.375-6.659,11.652 .245-.739 2.251-3.643 2.497-1.664-.89.34-1.94,4.56-.84,4.16zm-10.82-8.32c1.44,3.985-2.757,6.612-.833,8.324 2.384-2.055 2.485-6.394 4.162-9.156-1.58-.18-1.84.94-3.33.84zm4.16,9.15c-3.676,1.336-5.484,8.92-4.995,11.652 2.086-3.463 4.823-6.275 7.491-9.156-3.896-4.255 1.14-9.358.832-11.652-.8,3.56-5.97,4.6-3.32,9.16zm-14.15,5c4.658-1.446 4.459-7.748 6.659-11.652h-2.497c-.78,4.48-2.97,7.57-4.16,11.65zm47.44-6.66c4.369-.772 12.404.521 18.312.832-1.621-5.317-9.696-4.177-14.982-5.826 2.85,4.19-3.02,1.8-3.33,5zm-248.86,15.81c-1.046-.183-1.701-1.296-1.665.832-.581,4.187 1.413,5.801.832,9.988 11.187,12.396 18.881,28.285 33.293,37.456-1.002-8.065-6.348-10.903-10.82-15.815-8.995-9.877-17.761-19.63-21.64-31.628 8.995,11.812 16.563,25.053 28.299,34.125 2.209-2.264-1.113-6.058-1.665-8.323-12.177-8.909-22.331-27.052-31.628-41.616 .061,6.59 3.786,9.52 4.994,14.97zm264.68-9.15c-12.378.531-16.426-1.45-25.803-1.664 4.39,3.73 19.96,4.89 25.8,1.66zm-69.92,21.64c3.449-1.821 7.209-3.332 9.154-6.658-1.016-.094-1.97-.25-1.664-1.665 2.738-3.731 7.186-8.954 6.657-13.317-3.108-.89-2.371,2.068-4.993,1.665 1.843,3.443-.506,6.347-3.328,7.491-.122-2.128 3.686-4.548 1.664-5.826-1.185,2.144-5.412,1.246-5.826,4.161 2.477,4.176-5.181,9.768-4.162,12.485 4.39-1.436 3.949-7.703 9.156-8.323-1.55,3.47-6.38,8.03-6.66,10zm44.11-17.48c9.288.098 19.929,3.695 29.132.832-8.65-1.05-24.31-3.62-29.13-.83zm-33.29,9.99c.155-1.232 2.011-.763 3.328-.832-.104-5.116 7.674-6.731 6.66-9.987-1.7,4.69-10.88,6.31-9.99,10.82zm51.61-5c-1.541,1.789-6.124.534-7.49,2.497 6.745.086 13.736.419 16.646-3.33-8.402.713-23.528-3.675-28.299,0 7.59-.07 13.31,1.05 19.14.83zm-80.74,18.31c5.315-5.008 13.435-11.454 12.485-19.976-4.42,5.35-11.24,16.98-12.48,19.98zm100.71,30.8c.762-1.459 1.549-2.893 4.162-2.498-.242.512-2.069,3.205 0,3.33 .841-1.657 1.439-3.556 3.331-4.162 2.532,1.244-1.782,4.745 1.664,4.162 .489-2.562.212-5.891 3.329-5.826 .265,1.93-.134,3.195-.834,4.162 3.774.721 1.947-4.158 4.994-4.162 2.356-.137-.69,5.13 1.666,4.994 1.996-1.889.666-7.104 3.329-8.324 3.282-.229.241,5.863 2.497,6.658 1.059-2.548 1.181-6.032 2.496-8.322 1.794.703.703,4.291 2.497,4.994 1.386-2.222-.223-7.437 3.329-7.491-.225,3.45 1.094,3.243 0,5.827 4.303.417 1.041-6.728 3.331-8.324 2.4,5.18 2.554-6.445 6.657-.833-.607-3.936.487-6.17 3.328-6.658 .468,1.199 1.299,2.032 2.498,2.498 4.456-7.811 5.67-16.066 9.988-22.473-4.632-.363-3.323-6.665-6.659-8.323-13.802,8.708-24.568,17.499-40.783,16.647 .045,1.432-.642,2.133-1.664,2.497-10.662-3.892-24.353-2.021-32.461,1.665 .441,5.126-7.265,9.782-1.664,12.485-.119-6.071 3.673-13.193 5.826-10.82 1.101,1.215-5.301,6.268-2.498,9.988 .972-2.359 1.156-5.504 3.331-6.659 .695,2.675.183,10.496-5.828,9.155 .498,1.482-2.438,3.458 0,4.162-.614-4.253 2.695-3.383 3.331-.832-3.754,2.905-4.124,9.193-9.988,9.987-.131-.979.143-2.362-.833-2.496-1.639,3.632-10.538.006-13.318,2.496 13.6-2.913 28.167,9.286 43.281,4.162-2.877-1.204-3.922.93-5.826-.832-.015-1.219 3.511-2.638 0-2.498-1.541-2.543-1.245,3.669-4.162,2.498-.237-4.122 2.803-4.966 3.331-8.324-4.198.521-3.295,6.139-7.492,6.66 3.614-4.709 4.42-12.227 7.492-17.479-5.237.776-2.056,4.905-4.995,7.491-.01-1.101-1.458-.761-1.664-1.665 2.035-5.218 3.829-14.79 10.821-17.479-1.433,4.993-3.189,8.034-3.331,12.485 5.227-.685 1.838-7.617 7.49-9.155-1.772,5.994-4.453,11.082-7.49,15.814 1.244.142 3.072-.298 3.331.832-1.97,1.084-1.606,4.499-2.498,6.658 3.229-.131 2.461-8.594 6.657-4.994 .217,2.437-1.881,2.558-1.664,4.994 1.495-.106 1.947.826 1.664,2.498-.49-.02-.97.66-.03.82zm-93.22-32.46c4.741-4.692 8.49-10.375 10.821-17.479-5.67,3.22-8.85,13.34-10.82,17.48zm57.43-10.82c6.81,2.032 19.104,1.857 24.137-.833-6.89.5-17.62.05-24.14.83zm-32.46,9.99c3.959-2.146 7.065-5.143 10.821-7.49-6.4-.31-7.9,4.3-10.82,7.49zm12.49-5.83c-.002,3.908-8.408,3.767-5.826,7.491 1.095-1.678 2.732-2.816 4.994-3.329 3.068,3.034 10.904,1.302 14.981,3.329-.931-6.213-8.418-.895-12.485-4.162 4.042-2.164 9.072-1.904 14.981-.832 .479-.504 1.949-3.948 0-4.161-2.77,3.86-9.29,2.19-16.63,1.66zm29.13,2.5c-3.231-1.76-8.143-1.581-9.988-.832 4.54.45 8.38,3.16 9.99.83zm-187.28,21.64c5.33-5.772 13.057-13.572 13.318-21.641-3.886,7.76-9.951,13.35-13.318,21.64zm1.666,3.33c-1.509.79-4.872,1.032-2.498,3.329 7.233-3.315 15.863-16.868 17.479-25.801-5.171,7.31-9.918,15.04-14.98,22.47zm-44.946,12.48c-6.816-6.944-11.414-15.53-19.143-21.64 7.802,20.218 24.823,31.219 38.286,45.778-2.048-11.66-12.184-17.05-19.143-24.14zm2.497.83c6.881.896 9.088,10.877 14.149,10.819-2.284-2.595-3.553-2.98-2.497-7.489-13.128-10.455-22.168-24.998-34.125-36.623 3.765,14.82 16.036,21.14 22.473,33.29zm48.275-1.66c5.617-7.427 15.884-14.632 15.813-24.97-3.021,2.805-3.917,7.734-8.323,9.155-.768-6.905 9.546-10.555 4.994-15.813-4.208,9.944-14.326,18.409-15.814,28.299 4.369-3.399 5.027-10.51 10.82-12.485 1.334,5.36-8.905,10.41-7.49,15.82zm153.14-29.96c1.459.761 4.153.286 4.995,1.665-1.276,1.32-8.559-1.598-10.821.832 9.337,2.039 18.614,4.137 28.299,5.826-.98-8.34-15.91-11.06-22.48-8.32zm25.81,4.16c.185-1.821 3.753-4.48 1.664-5.827-1.2,1.38-5.38,4.54-1.66,5.83zm-40.79,13.31c-3.368-3.489-.521-14.064-1.664-17.479-4.04,5.039-.829,9.179-1.664,14.982 2.67-.73 1.13,2.75 3.32,2.5zm-68.25,5c8.931-3.28 17.567-11.281 19.976-18.31-6.61,6.16-13.12,12.41-19.98,18.31zm74.91-15.82c7.019,1.026 13.602,2.489 19.975,4.162-6.403,3.402-15.804-4.581-20.808,0 10.319,1.055 20.319,2.431 27.466,6.659-9.43.151-17.505-5.641-24.137-3.33 7.064,2.925 17.25,2.727 24.137,5.827-4.64,2.736-11.717-3.08-16.647,0 2.58.472 6.331-.226 6.659,2.496-4.267-.121-11.938-3.999-14.149-.832 4.461-.427 11.842,4.479 17.479,2.498-.904-.2-1.998-1.372-.832-1.666 3.03-.257 5.416.133 7.49.834 1.718-2.444 1.688-6.638 4.994-7.492-3.798,1.024.078-5.626-2.497-5.826-7.57.45-20.87-6.92-29.13-3.33zm-145.66,29.97c1.177,3.662 1.974-1.218 2.498-1.663 7.717-6.56 19.063-17.324 19.144-27.468-7.67,9.25-13.283,20.56-21.637,29.13zm68.257-.83c1.622-5.601 8.968-9.886 9.155-14.15-9.367,6.17-13.729,17.345-23.306,23.306 3.911-7.742 9.509-13.796 15.815-19.144-2.546-.604-2.448,1.436-4.994.832 .128,2.07-1.307,2.576-1.665,4.162-14.825,9.868-27.194,26.629-39.119,36.621 8.814-3.673 16.975-12.428 24.136-14.981-6.551,5.934-13.827,11.143-19.976,17.479 8.317-1.953 14.282-10.682 21.641-10.82-1.133.61-4.294,3.367-1.666,4.994 4.938-2.285 9.876-8.979 14.15-9.155-6.347,7.528-18.469,13.71-24.138,19.144 10.705-.952 16.39-11.351 24.97-11.652-6.496,5.988-15.044,9.926-21.641,15.813 7.774-.826 10.087-7.114 18.312-7.491-2.319,4.062-8.2,4.562-10.82,8.324 10.477-3.95 19.247-9.607 26.634-16.646 .229,2.92 3.101-2.089 3.329.832-7.095,7.332-16.699,12.153-25.802,17.479 7.27-.784 13.074-7.447 19.976-5.826-2.007,2.727-10.422,3.425-9.155,6.658 9.097-2.328 14.806-12.316 23.304-12.484-2.297,4.639-9.265,4.606-10.82,9.988 9.09-1.182 11.681-13.283 19.976-12.486-3.453,8.204-14.677,13.062-17.479,19.145 9.828-5.154 15.797-14.167 24.97-19.977-3.721,9.599-15.563,15.506-19.144,22.472 3.102-3.128 7.361-4.349 10.82-7.489 5.548-5.038 8.831-14.405 15.814-14.982-5.044,8.55-12.288,14.901-19.144,21.641 11.104-4.988 16.308-15.875 24.97-23.305-2.173,10.314-13.703,15.701-16.646,22.472 9.639-5.62 14.512-16.006 23.304-22.472-3.172,10.424-13.959,17.664-18.31,24.136 11.048-7.539 19.795-17.38 24.97-30.794h3.328c-.938,2.947-2.237,5.53-4.994,6.658-.434,9.317-8.125,13.476-13.317,20.809 13.666-6.428 21.538-21.749 23.304-37.456-5.676-.405-2.245,8.298-7.49,8.324 .795-5.863 2.022-11.295 4.995-14.982-1.137-4.283-1.472-3.392.831-6.657-2.173.231-4.165.279-3.329-2.498-2.483-.186-2.831,3.073-4.994.832-.07-3.121 3.049-3.055 3.33-5.826-3.986.176-3.153,5.17-8.324,4.162 1.4-4.15 5.021-6.077 9.155-7.49-2.066-1.97-4.898-.009-7.49,0 .948-3.215 5.188-3.136 6.659-5.827-5.466-.455-6.867,7.538-11.653,4.993 1.289-3.427 5.518-3.914 7.491-6.658-5.51.883-8.757,8.429-13.317,7.492 2.184-5.316 12.2-7.211 12.484-11.653-7.792,3.028-12.496,9.144-19.976,12.485 4.532-7.398 13.005-10.855 19.144-16.647-9.964,3.077-15.401,10.68-23.305,15.815-1.978,2.481-3.913,9.376-8.323,6.658 5.896-8.254 14.602-13.697 21.64-20.808-11.761,4.33-17.734,14.449-26.634,21.64 3.63-9.688 12.654-13.981 19.144-20.808-1.96-.019-2.451,1.433-4.994.832-2.083,4.792-7.882,6.696-11.653,10.82-2.8,3.064-3.853,10.816-9.155,9.156 4.744-8.019 11.673-13.853 18.311-19.976-9.145,2.508-12.908,10.397-19.144,15.814-.821,2.267-2.409,8.085-5.826,4.994 3.586-6.125 8.17-11.251 13.317-15.814-10.55,3.34-12.68,15.08-21.62,20.01zm-41.62-26.64c-7.685,10.903-15.703,21.474-24.97,30.795 10.56-6.93 23-20.8 24.97-30.79zm35.79,14.15c7.921-2.072 15.412-8.996 16.646-14.983-5.14,5.41-11.84,9.25-16.65,14.98zm-29.97.83c-8,8.368-22.78,9.957-26.634,22.472 4.423-2.799 8.858-9.995 13.316-9.988-3.03,5.849-9.667,8.089-12.484,14.15 5.451-.097 5.194-5.904 9.987-6.658-1.109,4.162-4.635,5.908-5.826,9.987 5.184.171 5.291-7.624 9.988-6.659-3.293,4.661-4.422,6.455-7.491,10.821 4.748.308 4.539-4.34 9.155-4.162-1.598,2.861-7.632,5.657-6.658,8.324 4.023-2.358 6.408-6.354 11.652-7.491-1.466,4.081-6.204,4.894-8.324,8.323 7.325-.723 10.023-6.071 15.815-8.323 5.069-9.36 17.964-15.326 20.808-24.138-5.789,2.014-17.113-5.525-26.634-.832 5.114-6.265 16.641-10.542 17.478-18.312-4.48,3.296-8.018,11.947-14.149,10.819 1.338-2.822 5.248-3.074 5.826-6.658-5.345,2.155-10.172,9.236-14.982,9.156 2.432-2.562 4.104-5.884 5.827-9.156-5.9,6.034-13.527,14.769-17.479,19.977 6.85-5.22 12.13-11.99 20.81-11.65zm11.66,3.33c7.536-3.561 14.194-8 17.478-15.813-5.44,5.11-14.78,10.75-17.48,15.81zm8.32-.83c6.803-3.189 15.323-9.084 16.647-14.981-5.85,4.69-12.39,8.7-16.65,14.98zm-14.15,0c4.74-1.647 11.685-8.284 15.813-13.317-6.31,3.4-12.07,7.35-15.81,13.32zm137.33-3.33c2.406,1.031 3.794.424 4.162-2.498h-2.498c.26,1.64-1.12,1.66-1.66,2.5zm-29.13,27.47c-1.366-4.304-3.491-8.006-2.497-11.652 1.713-6.284 7.521-5.037 9.988-9.155-12.08-.76-15.7,14.59-7.49,20.81zm33.3-12.49c-.237.976-3.667,3.458 0,3.328 .924-1.573 2.076-2.917 2.497-4.994-7.469-1.595-18.422-6.045-24.97-3.329 8.84.31 16.49,1.81 22.47,4.99zm-11.66,23.31c-.978.131-2.362-.143-2.497.834 14.741,5.836 32.249,1.676 45.777,5.826 1.292-2.895 5.866-6.867 7.49-6.66-.483,3.956-3.663,5.216-6.657,6.66 4.93-.745 10.172,2.56 14.149,0-4.521-.946-6.758.849-9.156-1.666 3.847-2.257 4.147-8.06 9.156-9.154-1.216,1.6-3.615,6.317-2.498,7.49 2.95-2.878 4.409-7.245 8.324-9.155 .1,2.107-3.515,4.719-1.665,5.825 5.041-7.066 11.69-14.451 10.819-24.97 1.107-2.037 3.098.916 3.331-.831-1.233-.155-.764-2.012-.833-3.33-12.092-3.127-20.854,5.359-32.461,6.659-7.588.849-13.91-2.477-22.472-.832-4.807,8.233-7.336,18.743-14.981,24.138-.037-1.146.391-1.829.831-2.498-8.143.367-15.278-4.687-20.808-4.161 3.96,4.56 8.94,3.02 14.16,5.83zm.83-20.81c-6.117.847-7.818-2.724-14.148-1.664 1.611,3.659 9.401,1.139 10.819,4.994-4.399.489-8.857-3.316-12.485-.832 8.075,1.634 14.15,5.27 23.306,5.826-.933-2.622-.076-1.886 0-4.994-1.344-1.154-4.292-.704-4.995-2.498 1.475-.188 4.168.839 3.329-1.664-5.351-.519-4.46-2.154-9.987-2.497-.53,3.02 3.97,1.02 4.16,3.32zm12.49,4.99c2.218-1.266 6.639-6.781 3.329-8.323 .5,4.17-4.54,6.08-3.33,8.32zm49.11,19.15c6.243-5.25 15.415-16.054 14.15-23.306-2.75,9.74-9.21,15.76-14.15,23.31zm-56.6-8.33c-.342-2.005 1.52-1.81.831-4.162-7.271-3.274-17.8-7.719-26.634-6.658 12.14.07 11.94,12.48 25.8,10.82zm-20.81-2.49c-1.662-.271-8.208-2.687-8.323.833 2.29-1.97 7.18.5 8.32-.83zm-14.15,7.49c-1.198.467-2.029,1.299-2.495,2.498-.277,5.836-6.604,12.811-10.821,17.479-2.547.517-2.656,4.27-.832.832 5.221-1.436 7.057-6.26 11.652-8.322 2.123-4.257 3.206-9.556 6.657-12.486 .402,11.548-10.292,19.083-17.478,25.803 7.96-1.75 10.034-9.387 16.646-12.484-2.356,5.968-7.119,9.525-10.82,14.148 9.036-3.451 14.019-15.385 19.976-19.143-1.282,5.378-4.075,9.242-6.659,13.316 5.843-3.59 9.872-8.993 10.819-17.479-5.282,1.545-1.984-.318-4.993-1.664-1.871,3.123-1.762,8.226-6.659,8.322 1.194-4.076 2.968-7.574 4.162-11.652-2.633-1.144-2.781-.181-5.826,0v-5.825c-4.46.39-2.36,2.46-3.33,6.65zm-108.2,11.65c4.781-3.543 12.641-4.007 15.814-9.156-5.65-.9-13.72,6.57-15.81,9.16zm114.86,16.65c6.034-3.166 19.485-18.4 11.652-22.475-1.63,9.19-7.72,18.34-11.65,22.47zm8.32-1.67c6.19-2.692 11.457-10.729 9.987-18.31-2.18,7.25-6.19,12.68-9.99,18.31zm-203.92-8.32c-3.854-.607-5.446-7.845-9.156-5.826 3.235,1.23 5.037,8.26 9.156,5.83zm211.41,8.32c2.74-4.751 7.376-7.606 7.491-14.979-4.45,2.5-6.35,11.94-7.49,14.98zm24.97-1.66c2.63.385 8.276-7.785 7.49-10.819-2.62,3.47-4.83,7.37-7.49,10.82zm-20.8.83c4.211-.228 2.899-5.979 6.659-6.658 .874,5.312-2.285,6.592-3.33,9.987 6.724-.556 5.82-9.777 1.666-13.317-.94,4.06-3.53,6.47-5,9.99zm14.15-3.33c.72-2.096 5.289-4.644 3.328-6.66-.1,2.72-4.89,5.05-3.33,6.66zm4.16-.83c4.025.42 3.167-4.045 4.995-5.826-2.1,1.51-4.67,2.55-4.99,5.83zm6.65,4.16c3.539-1.887 10.893-6.412 7.491-9.988-2.07,3.75-5.63,6.02-7.49,9.99zm9.16-1.67c1.362-2.822 7.304-5.429 5.826-8.324-1.02,3.17-6.73,6-5.83,8.32zm-131.5-1.66c3.123-1.039 6.398-1.923 7.49-4.994-2.87,1.29-5.49,2.84-7.49,4.99zm-69.089,12.48c4.887-.106 8.176-1.812 9.989-4.993-3.781,1.21-6.95,3.04-9.989,4.99z"/>
  <path d="m221.4,20.292c.012,3.62-4.871,2.345-5.826,4.995-1.99-2.322 4.03-3.71 5.83-4.995z"/>
  <path d="m357.07,34.441c1.454,1.039-2.132,3.412 0,5.827-2.084-.141-2.605,1.278-3.33,2.497-1.63-2.227 2.51-5.78 3.33-8.324z" fill="#fff"/>
  <path d="m93.22,146.8c.127,7.901-8.541,14.205-11.652,21.64-2.26.597.595-3.924-1.665-3.329 5.618-4.92 8.877-12.2 13.317-18.31z" fill="#fff"/>
  <path d="m104.04,59.411c-11.877,23.196-24.639,47.653-29.131,75.742-3.408-1.95.413-6.96-1.665-9.156 .093-1.573 2.752-.577 2.497-2.498 5.679-25.107 14.672-46.91 28.299-64.079z" fill="#fff"/>
  <path d="m372.88 62.74c1.896-1.448 12.979 1.878 18.312 2.497-5.32 1.703-12.21-2.199-18.31-2.497z" fill="#fff"/>
  <path d="m81.568,78.554c-4.872,3.729-5.003,12.198-9.155,16.646-.308-8.386 4.497-9.13 6.658-19.143-2.793.258-3.319,2.784-4.162,4.994-1.897-4.691 5.527-7.221 9.155-9.156-.433,1.232-1.231,2.098-1.665,3.33 3.7-.741 4.212-4.668 6.659-6.659-1.498,6.553-7.458,15.842-10.82,23.305 7.436-4.537 10.613-20.428 17.479-28.299-5.25,16.669-17.002,34.047-21.641,54.101-2.448-6.012 4.371-16.542 5.826-24.137-4.398,1.428-3.644,8.008-6.659,10.821-2.159-.705 1.602-3.651-.832-4.994 3.392-.59 6.765-13.838 9.157-20.802z" fill="#fff"/>
  <path d="m310.46,105.19c3.158,2.666 6.753,4.899 11.652,5.826-1.775-7.513-11.398-5.203-16.646-7.49 3.484-7.581 16.26-18.556 24.137-9.157-4.508-2.42-8.663-1.368-12.485.833 4.953,2.816 11.533,4.003 16.647,6.659 .826-2.795-6.604-4.476-9.988-5.826 4.951-1.605 11.413,2.446 15.814,4.162 1.825-2.071-1.73-3.805-4.162-4.162 9.095,2.918 19.181,2.978 31.628,4.162-.225,21.765-23.932,30.373-40.785,38.287-4.7,2.208-6.508,5.478-13.315,5.826 1.818-4.562 6.821-5.941 8.322-10.821-6.801,2.154-10.1,11.991-17.479,10.821 5.324-5.22 13.138-7.95 15.815-15.815-7.523,4.453-12.832,15.405-22.473,14.983 10.071-5.188 17.274-13.245 24.137-21.641-2.279-1.954-5.767,1.967-5.826,4.994-7.287,5.198-13.16,11.809-21.639,15.813 2.248-4.693 12.115-8.964 15.812-14.981-6.392-.682-11.195,11.392-18.31,9.988 4.536-3.231 9.056-6.481 12.483-10.82-3.904-1.674-5.183,5.704-10.819,4.994 .671-2.936 5.079-2.134 4.993-5.827-.752-2.256-3.063.702-3.328,1.665-6.028-5.629-22.711-5.028-32.461-4.162-2.649-1.645 1.042-3.872 2.498-4.161 8.022,3.074 20.809,1.386 28.298,4.994 3.199-1.24 4.047-4.832 7.491-5.826-1.28-2.284-4.88.036-4.993,1.664-1.886-1.141 2.055-3.427 2.495-4.994-3.013-2.598-4.311,1.852-7.49,1.664-2.207-2.193 2.465-1.759 2.497-4.161-4.948,2.143-9.635.958-12.485-.833-.392-3.428 2.24.801 2.498-2.496-3.616-.287-4.645,2.013-7.491,2.496-3.406.39.025-2.092 0-3.329-6.791,3.228-14.472,2.042-16.647,10.821-4.571-2.943 4.063-6.252 4.995-9.156-8.888.316-15.687,17.938-9.157,26.634-10.075-8.351-.464-26.505 6.66-30.796 17.681-5.111 40.841-.74 51.604,10.82-2.779,2.493-5.661,4.882-8.323,7.492 3.439,1.748 7.886-2.636 9.154-5.826 2.521,1.017-.588,3.176-.831,4.161 3.217-.111 3.282-3.375 5.825-4.161-.292-2.759-2.492-3.611-4.162-4.995 1.997-2.74 2.456,3.028 5.826,1.665-1.21-7.27-9.33-2.6-9.99-9.95zm1.66-5.827c7.308-1.192 10.987,5.643 16.646,3.329-3.76-2.31-13.59-8.202-16.65-3.327zm-3.33,3.327c6.396-1.521 11.106,6.044 14.982,1.666-4.97.35-10.94-6.57-14.98-1.67zm-9.99,22.47c2.973-.912 4.915-2.854 5.827-5.826-3.59.3-5.53,2.24-5.83,5.83z" fill="#fff"/>
  <path d="m211.41 100.2c-1.597 8.118-4.122 22.509-11.652 27.466 3.86-9.19 7.53-18.56 11.65-27.47z"/>
  <path d="m243.87,101.86c1.181.333-1.116,5.72-2.497,9.155-.924-1.641-2.077-3.886-2.497,0-4.26-3.09 4.81-5.2 5-9.16z" fill="#fff"/>
  <path d="m243.87,116.01c-.245-1.979-2.252.925-2.497,1.664-.485-3.278 2.556-10.19 6.659-11.652-.875,5.507-2.15,10.613-4.995,14.15-1.1.4-.05-3.82.83-4.16z" fill="#fff"/>
  <path d="m239.71,111.85c.309,2.294-4.728,7.397-.832,11.652-2.668,2.881-5.405,5.693-7.491,9.156-.49-2.732 1.318-10.316 4.995-11.652-2.65-4.57 2.52-5.61 3.33-9.16z" fill="#fff"/>
  <path d="m156.48,124.33c-8.206,14.734-12.993,27.947-26.634,37.454-.762-2.923 3.288-5.304 5.826-8.323 2.863-3.403 6.557-7.76 9.155-11.652 4.01-6.03 5.32-14.47 11.64-17.48z"/>
  <path d="m222.23,137.65c-5.207.62-4.766,6.887-9.156,8.323-1.019-2.717 6.639-8.309 4.162-12.485 .415-2.915 4.641-2.017 5.826-4.161 2.021,1.277-1.786,3.698-1.664,5.826 2.822-1.144 5.171-4.048 3.328-7.491 2.623.403 1.885-2.554 4.993-1.665 .528,4.364-3.919,9.586-6.657,13.317-.306,1.415.648,1.571 1.664,1.665-1.945,3.326-5.706,4.837-9.154,6.658 .28-1.97 5.11-6.53 6.66-9.99z" fill="#fff"/>
  <path d="m236.38,129.33c1.014,3.256-6.765,4.872-6.66,9.987-1.317.069-3.173-.4-3.328.832-.89-4.51 8.29-6.13 9.99-10.82z" fill="#fff"/>
  <path d="m258.85,134.32c4.771-3.675 19.897.713 28.299,0-2.91,3.749-9.901,3.416-16.646,3.33 1.366-1.963 5.949-.708 7.49-2.497-5.82.22-11.54-.9-19.14-.83z" fill="#fff"/>
  <path d="m12.485,164.28c-5.881-8.818-5.03-21.215-5.826-30.796 2.744,11.911 5.937,19.802 7.49,33.293h-2.497c3.042.843 2.987,4.782 3.33,8.323-3.918-.2-5.084-9.31-2.497-10.81z"/>
  <path d="m209.75,133.49c.95,8.522-7.17,14.968-12.485,19.976 1.24-3.01 8.06-14.64 12.49-19.98z" fill="#fff"/>
  <path d="m297.97,183.43c.283-1.672-.169-2.604-1.664-2.498-.217-2.437 1.881-2.558 1.664-4.994-4.196-3.6-3.428,4.863-6.657,4.994 .892-2.159.528-5.574 2.498-6.658-.259-1.13-2.087-.69-3.331-.832 3.037-4.732 5.718-9.821 7.49-15.814-5.652,1.538-2.264,8.47-7.49,9.155 .142-4.451 1.898-7.492 3.331-12.485-6.992,2.689-8.786,12.261-10.821,17.479 .206.904 1.654.564 1.664,1.665 2.939-2.586-.242-6.715 4.995-7.491-3.071,5.253-3.877,12.771-7.492,17.479 4.197-.521 3.294-6.139 7.492-6.66-.528,3.358-3.568,4.202-3.331,8.324 2.917,1.171 2.621-5.041 4.162-2.498 3.511-.14-.015,1.279 0,2.498 1.904,1.762 2.949-.372 5.826.832-15.114,5.124-29.681-7.075-43.281-4.162 2.78-2.49 11.679,1.136 13.318-2.496 .976.134.702,1.517.833,2.496 5.865-.794 6.234-7.082 9.988-9.987-.636-2.551-3.945-3.421-3.331.832-2.438-.704.498-2.68 0-4.162 6.01,1.341 6.522-6.479 5.828-9.155-2.175,1.154-2.359,4.3-3.331,6.659-2.803-3.72 3.599-8.773 2.498-9.988-2.153-2.373-5.945,4.749-5.826,10.82-5.601-2.703 2.105-7.359 1.664-12.485 8.108-3.686 21.799-5.557 32.461-1.665 1.022-.363 1.709-1.065 1.664-2.497 16.215.852 26.981-7.938 40.783-16.647 3.336,1.659 2.027,7.96 6.659,8.323-4.318,6.407-5.532,14.662-9.988,22.473-1.199-.466-2.03-1.299-2.498-2.498-2.841.488-3.936,2.723-3.328,6.658-4.104-5.611-4.257,6.014-6.657.833-2.29,1.596.972,8.741-3.331,8.324 1.094-2.584-.225-2.377 0-5.827-3.552.055-1.943,5.27-3.329,7.491-1.794-.703-.703-4.291-2.497-4.994-1.315,2.29-1.438,5.774-2.496,8.322-2.256-.795.785-6.888-2.497-6.658-2.663,1.221-1.333,6.436-3.329,8.324-2.356.136.69-5.131-1.666-4.994-3.047.004-1.22,4.883-4.994,4.162 .7-.967 1.099-2.232.834-4.162-3.117-.064-2.84,3.264-3.329,5.826-3.446.583.868-2.918-1.664-4.162-1.892.606-2.49,2.505-3.331,4.162-2.069-.125-.242-2.818 0-3.33-2.613-.395-3.4,1.039-4.162,2.498-.91-.13-.43-.81.03-.8zm.83-5.83c3.587.798 2.818-5.262 1.665-6.66-2.028.471-4.281.713-4.162,3.33 2.2-.25 2.74,1.15 2.5,3.33zm-19.14-6.66c5.319-3.005 4.889-11.756 8.323-16.646-5.68,2.19-7.67,12.17-8.32,16.65zm-6.66,11.65c3.061-2.211 4.544-5.997 6.659-9.154-3.69,1.58-5.33,5.21-6.66,9.15zm4.16,0c4.288-.981 5.637-4.904 7.49-8.322-1.064-.046-1.151-1.066-2.497-.832-1.16,3.54-4.02,5.41-4.99,9.15z" fill="#fff"/>
  <path d="m261.35,146.8c1.845-.749 6.757-.928 9.988.832-1.61,2.34-5.45-.37-9.99-.83z" fill="#fff"/>
  <path d="m99.046,168.44c-5.793,1.976-6.451,9.086-10.82,12.485 1.489-9.89 11.606-18.355 15.814-28.299 4.55,5.27-5.762,8.92-4.994,15.82 4.406-1.42 5.302-6.35 8.323-9.155 .07,10.338-10.197,17.543-15.813,24.97-1.416-5.4 8.823-10.45 7.489-15.81z" fill="#fff"/>
  <path d="m226.39,169.28c.835-5.804-2.376-9.944 1.664-14.982 1.143,3.415-1.704,13.99 1.664,17.479-2.18.24-.64-3.24-3.32-2.5z" fill="#fff"/>
  <path d="m181.45 158.46c-2.409 7.029-11.045 15.03-19.976 18.31 6.86-5.9 13.37-12.15 19.98-18.31z" fill="#fff"/>
  <path d="m112.36,161.79c-.081,10.144-11.426,20.908-19.144,27.468-.523.445-1.321,5.325-2.498,1.663 8.359-8.57 13.972-19.88 21.642-29.13z" fill="#fff"/>
  <path d="m180.61,170.11c-5.147,4.563-9.731,9.689-13.317,15.814 3.417,3.091 5.005-2.728 5.826-4.994 6.236-5.417 10-13.306 19.144-15.814-6.637,6.124-13.566,11.958-18.311,19.976 5.302,1.66 6.354-6.092 9.155-9.156 3.771-4.124 9.57-6.027 11.653-10.82 2.543.601 3.034-.851 4.994-.832-6.49,6.827-15.514,11.12-19.144,20.808 8.9-7.191 14.873-17.311 26.634-21.64-7.038,7.111-15.744,12.554-21.64,20.808 4.41,2.718 6.346-4.177 8.323-6.658 7.904-5.136 13.341-12.739 23.305-15.815-6.139,5.792-14.612,9.249-19.144,16.647 7.48-3.342 12.184-9.458 19.976-12.485-.285,4.442-10.301,6.337-12.484,11.653 4.56.937 7.807-6.609 13.317-7.492-1.973,2.744-6.202,3.231-7.491,6.658 4.786,2.545 6.187-5.448 11.653-4.993-1.471,2.691-5.711,2.612-6.659,5.827 2.592-.009 5.423-1.97 7.49,0-4.134,1.413-7.755,3.34-9.155,7.49 5.171,1.008 4.338-3.986 8.324-4.162-.281,2.771-3.4,2.705-3.33,5.826 2.163,2.241 2.51-1.018 4.994-.832-.835,2.777 1.156,2.729 3.329,2.498-2.303,3.266-1.968,2.374-.831,6.657-2.972,3.688-4.199,9.119-4.995,14.982 5.245-.026 1.813-8.729 7.49-8.324-1.766,15.707-9.639,31.028-23.304,37.456 5.192-7.333 12.883-11.491 13.317-20.809 2.756-1.128 4.056-3.711 4.994-6.658h-3.328c-5.175,13.414-13.922,23.255-24.97,30.794 4.351-6.472 15.138-13.712 18.31-24.136-8.792,6.466-13.666,16.852-23.304,22.472 2.944-6.771 14.474-12.157 16.646-22.472-8.662,7.43-13.867,18.316-24.97,23.305 6.855-6.739 14.099-13.091 19.144-21.641-6.983.577-10.266,9.944-15.814,14.982-3.459,3.141-7.719,4.361-10.82,7.489 3.58-6.966 15.422-12.873 19.144-22.472-9.172,5.81-15.142,14.822-24.97,19.977 2.802-6.083 14.026-10.94 17.479-19.145-8.295-.797-10.886,11.305-19.976,12.486 1.555-5.382 8.522-5.35 10.82-9.988-8.499.168-14.207,10.156-23.304,12.484-1.267-3.233 7.147-3.932 9.155-6.658-6.902-1.621-12.706,5.042-19.976,5.826 9.103-5.325 18.708-10.146 25.802-17.479-.229-2.921-3.1,2.088-3.329-.832-7.387,7.039-16.157,12.696-26.634,16.646 2.62-3.762 8.5-4.262 10.82-8.324-8.224.377-10.538,6.665-18.312,7.491 6.597-5.888 15.145-9.825 21.641-15.813-8.58.302-14.265,10.7-24.97,11.652 5.669-5.434 17.791-11.615 24.138-19.144-4.274.177-9.212,6.87-14.15,9.155-2.629-1.627.532-4.384 1.666-4.994-7.359.139-13.324,8.867-21.641,10.82 6.149-6.337 13.425-11.546 19.976-17.479-7.161,2.554-15.322,11.309-24.136,14.981 11.925-9.992 24.294-26.753 39.119-36.621 .357-1.586 1.793-2.092 1.665-4.162 2.546.604 2.448-1.436 4.994-.832-6.306,5.348-11.904,11.401-15.815,19.144 9.576-5.961 13.939-17.136 23.306-23.306-.187,4.265-7.533,8.55-9.155,14.15 8.94-4.98 11.07-16.72 21.63-20.03zm17.48,22.47c7.062-2.371 9.365-9.502 14.149-14.149-1.145.035-1.828-.393-2.496-.832-3.62,5.25-9.58,8.17-11.65,14.98zm9.99-5.82c3.809-.581 9.735-6.202 6.658-8.322-1.97,3.02-5.5,4.48-6.66,8.32zm-14.15,0c1.755-2.129 4.199-3.569 4.161-7.49-3.98-.5-7.4,6.01-4.16,7.49zm3.33,1.66c3.922-1.905 5.691-5.962 8.323-9.156-5.54.29-7.46,4.2-8.32,9.16zm-12.48,22.47c8.122-.485 10.38-11.25 10.819-16.646-3.61,5.56-6.88,11.44-10.82,16.65zm-5,0c6.214.821 8.601-9.064 11.652-14.15h-3.33c-.06,7.43-6.53,8.45-8.32,14.15zm36.62,0c5.166-1.216 5.326-7.436 5.826-13.316-4.51,1.88-4.24,8.53-5.83,13.32zm-4.99-2.49c3.943,1.341 6.596-6.92 3.329-9.155-1.28,2.88-1.93,6.4-3.33,9.16zm-17.48,1.66c3.805-.379 6.382-6.35 4.994-9.156-1.7,3.02-4.25,5.18-4.99,9.16zm11.65-.83c4.227.592 5.254-6.361 4.162-8.324-1.15,3.01-3.66,4.66-4.16,8.32zm-52.43,5.83c6.311-1.539 14.798-9.503 13.317-13.317-3.53,5.36-9.96,7.8-13.32,13.32zm-12.49-3.33c4.747.288 8.603-4.688 7.491-7.491-2.3,2.68-5.7,4.28-7.49,7.49zm29.97,1.66c5.455-.108 9.257-6.261 9.155-9.155-2.86,3.24-6.93,5.27-9.15,9.15zm-19.98,9.99c7.73-1.213 12.97-8.963 19.143-14.149-7.29.55-13.15,9.54-19.14,14.15zm54.1-9.16c.338-1.604 3.226-.657 2.497-3.329-1.064-.046-1.152-1.066-2.497-.832-.48.51-1.95,3.95 0,4.16zm-16.65,3.33c5.729,1.29 4.279-4.601 6.659-6.659-3.26,1.17-5.71,3.17-6.66,6.66zm8.33-2.49c2.21-.287 2.808-2.184 3.329-4.161-2.21.28-2.81,2.18-3.33,4.16zm-19.98,5.82c6.283.179 8.138-4.069 9.988-8.322-6.24-.14-6.42,5.78-9.99,8.32zm36.63-3.33c3.256,1.325 6.317-4.578 2.498-4.994-.34,2.16-2.49,2.51-2.5,4.99zm-50.78,9.16c8.739-1.247 13.454-6.521 17.479-12.484-2.889-1.942-10.875,4.074-6.66,6.658-5.53.01-7.88,3.2-10.82,5.82z" fill="#fff"/>
  <path d="m92.388 194.25c9.267-9.321 17.285-19.893 24.97-30.795-1.97 9.98-14.41 23.85-24.972 30.79z" fill="#fff"/>
  <path d="m102.38,190.09c3.952-5.208 11.579-13.942 17.479-19.977-1.723,3.272-3.395,6.594-5.827,9.156 4.81.08 9.637-7.001 14.982-9.156-.579,3.584-4.488,3.836-5.826,6.658 6.132,1.128 9.669-7.523 14.149-10.819-.837,7.77-12.364,12.047-17.478,18.312 9.521-4.693 20.845,2.846 26.634.832-2.844,8.812-15.739,14.777-20.808,24.138-5.792,2.252-8.49,7.601-15.815,8.323 2.12-3.43 6.857-4.242 8.324-8.323-5.244,1.137-7.629,5.133-11.652,7.491-.974-2.667 5.061-5.463 6.658-8.324-4.617-.178-4.408,4.47-9.155,4.162 3.069-4.366 4.198-6.16 7.491-10.821-4.698-.965-4.804,6.83-9.988,6.659 1.191-4.079 4.717-5.825 5.826-9.987-4.793.754-4.536,6.562-9.987,6.658 2.816-6.062 9.454-8.302 12.484-14.15-4.458-.007-8.893,7.189-13.316,9.988 3.854-12.515 18.633-14.104 26.634-22.472-8.69-.35-13.97,6.42-20.81,11.65zm17.48,17.47c3.664-3.559 10.762-8.091 10.82-12.485-3.69,3.54-10.09,8.77-10.82,12.48zm-6.66,0c4.674-.874 6.929-4.169 8.324-8.323-3.71,1.84-6.48,4.62-8.32,8.32z" fill="#fff"/>
  <path d="m152.32 165.95c-3.284 7.813-9.942 12.253-17.478 15.813 2.7-5.06 12.04-10.7 17.48-15.81z" fill="#fff"/>
  <path d="m279.66 173.44c-2.114 3.157-3.598 6.943-6.659 9.154 1.33-3.94 2.97-7.57 6.66-9.15z"/>
  <path d="m248.03,187.59c6.547-2.716 17.5,1.734 24.97,3.329-.421,2.077-1.573,3.421-2.497,4.994-3.667.13-.237-2.353 0-3.328-5.97-3.18-13.62-4.68-22.47-4.99z" fill="#fff"/>
  <path d="m244.7,210.06c5.53-.525 12.665,4.528 20.808,4.161-.44.669-.868,1.352-.831,2.498 7.645-5.395 10.175-15.904 14.981-24.138 8.562-1.645 14.884,1.681 22.472.832 11.607-1.3 20.369-9.786 32.461-6.659 .069,1.318-.4,3.175.833,3.33-.233,1.747-2.224-1.206-3.331.831 .871,10.519-5.778,17.903-10.819,24.97-1.85-1.106 1.765-3.718 1.665-5.825-3.915,1.91-5.374,6.277-8.324,9.155-1.117-1.173 1.282-5.891 2.498-7.49-5.009,1.095-5.31,6.897-9.156,9.154 2.398,2.515 4.636.72 9.156,1.666-3.978,2.56-9.22-.745-14.149,0 2.994-1.444 6.174-2.704 6.657-6.66-1.624-.207-6.198,3.766-7.49,6.66-13.528-4.15-31.037.01-45.777-5.826 .135-.977 1.519-.703 2.497-.834-5.23-2.81-10.21-1.27-14.16-5.83zm34.96-8.32c.914-2.691 2.415-4.797 3.329-7.49-3,.28-6.49,6.27-3.33,7.49zm-2.5.83c-2.609,4.605-5.273,9.157-7.492,14.151 5.562-1.098 4.554-8.766 9.156-10.821-.506,4.768-3.495,7.049-4.995,10.821 4.17.006 2.975-5.35 6.659-5.827 .45,3.223-2.121,3.428-2.497,5.827 6.659-4.995 9.178-14.127 13.318-21.642-6.669,1.933-5.485,11.717-11.652,14.15 1.881-4.236 6.854-9.775 5.826-14.15-2.98,2.44-3.9,11.54-8.34,7.49zm12.49,4.16c1.628-3.088 3.602-5.83 4.993-9.154-3.52.62-7.9,7.42-4.99,9.15zm2.49-.83c.037,1.146-.391,1.828-.831,2.497 1.4,1.157 4.616-.918 5.826-2.497-1.74-1.82-2.38.42-5,0zm-2.49,11.65h2.495c1.775-1.277 2.407-3.698 3.331-5.826-3.47.42-4.61,3.16-5.82,5.83zm2.49-7.49c-5.92,1.316-2.194-.692-4.993-2.497-1.185,3.254-3.688,5.189-4.161,9.156 4.87,2.64 8.49-2.4 9.15-6.66zm.84,9.16c1.574-.187 1.837.938 3.329.832 .747-1.75 1.293-3.7 2.497-4.994-2.98.35-4.57,2.09-5.83,4.16zm4.99-.84c-.838,2.503 1.854,1.475 3.331,1.664v-2.496c-1.57-.18-1.84.95-3.33.84z" fill="#fff"/>
  <path d="m275.5 191.75c3.31 1.542-1.111 7.058-3.329 8.323-1.21-2.24 3.83-4.15 3.33-8.32z" fill="#fff"/>
  <path d="m179.78,204.24c.102,2.895-3.701,9.047-9.155,9.155 2.23-3.89 6.3-5.92 9.16-9.16z"/>
  <path d="m235.55,209.23c.115-3.52 6.661-1.104 8.323-.833-1.14,1.33-6.03-1.14-8.32.83z" fill="#fff"/>
  <path d="m233.05,209.23v5.825c3.045-.181 3.193-1.144 5.826,0-1.194,4.078-2.968,7.576-4.162,11.652 4.897-.097 4.789-5.199 6.659-8.322 3.009,1.346-.289,3.209 4.993,1.664-.948,8.485-4.976,13.889-10.819,17.479 2.584-4.074 5.377-7.938 6.659-13.316-5.957,3.758-10.94,15.691-19.976,19.143 3.701-4.623 8.464-8.181 10.82-14.148-6.612,3.098-8.687,10.734-16.646,12.484 7.187-6.72 17.88-14.255 17.478-25.803-3.451,2.931-4.534,8.229-6.657,12.486-4.595,2.062-6.431,6.887-11.652,8.322-1.824,3.438-1.716-.315.832-.832 4.216-4.668 10.544-11.643 10.821-17.479 .466-1.199 1.297-2.031 2.495-2.498 .97-4.18-1.13-6.25 3.33-6.65z" fill="#fff"/>
  <path d="m173.12 220.88c-4.215-2.584 3.771-8.601 6.66-6.658-4.025 5.963-8.74 11.237-17.479 12.484 2.94-2.61 5.29-5.8 10.82-5.82z"/>
  <path d="m137.33 218.38c-3.173 5.149-11.033 5.613-15.814 9.156 2.09-2.59 10.16-10.06 15.81-9.16z" fill="#fff"/>
  <path d="m248.03 221.71c7.833 4.074-5.618 19.309-11.652 22.475 3.93-4.12 10.02-13.27 11.65-22.47z" fill="#fff"/>
  <path d="m259.68,227.54c-.115,7.373-4.751,10.229-7.491,14.979 1.14-3.04 3.04-12.48 7.49-14.98z" fill="#fff"/>
  <path d="m273.83 231.7c1.961 2.017-2.608 4.564-3.328 6.66-1.55-1.61 3.24-3.94 3.33-6.66z" fill="#fff"/>
  <path d="m296.31,231.7c1.478,2.896-4.464,5.502-5.826,8.324-.9-2.32 4.81-5.15 5.83-8.32z" fill="#fff"/>
  <path d="m394.52,78.554c-3.327.277-4.619-1.483-8.323-.833 .405,3.203 6.74.474 6.659,4.162-8.714-.696-22.312-6.388-29.131-8.324 .657.187-10.278.014-3.33-.832 2.521-1.145 2.975.396 6.659,0-1.155-2.175-4.299-2.359-6.659-3.33 6.584-11.532 23.786-1.096 34.959,1.665 1.19,2.533.14,4.98-.84,7.492zm-9.99-.832c-.064-2.709-3.772-1.776-5.826-2.496 .07,2.709 3.78,1.775 5.83,2.496z" fill="#fff"/>
  <path d="m267.18,162.62c-9.685-1.689-18.962-3.787-28.299-5.826 2.263-2.43 9.545.489 10.821-.832-.842-1.379-3.536-.904-4.995-1.665 6.57-2.74 21.5-.02 22.48,8.32z" fill="#fff"/>
  <path d="m255.52,191.75c5.527.343 4.636,1.979 9.987,2.497 .839,2.503-1.854,1.476-3.329,1.664 .703,1.794 3.651,1.344 4.995,2.498-.076,3.108-.933,2.372 0,4.994-9.156-.557-15.23-4.192-23.306-5.826 3.627-2.484 8.086,1.321 12.485.832-1.418-3.855-9.208-1.335-10.819-4.994 6.33-1.06 8.031,2.511 14.148,1.664-.2-2.29-4.7-.29-4.17-3.32z" fill="#fff"/>
 </g>
</svg>
